<?xml version="1.0" standalone="no"?>
<!DOCTYPE svg PUBLIC "-//W3C//DTD SVG 1.1//EN" "http://www.w3.org/Graphics/SVG/1.1/DTD/svg11.dtd" >
<svg>
<metadata>
Created by FontForge 20090914 at Sat Jan  5 08:38:01 2013
 By www-data
&#194;&#169;1991,1993 Tilde Ltd. AG Fonts collection.
</metadata>
<defs>
<font id="AGLettericaCondensedLight-Bold" horiz-adv-x="500" >
  <font-face 
    font-family="AGLettericaCondensedLight"
    font-weight="700"
    font-stretch="normal"
    units-per-em="1000"
    panose-1="0 0 0 0 0 0 0 0 0 0"
    ascent="800"
    descent="-200"
    x-height="560"
    cap-height="750"
    bbox="-99 -189.001 1113 972"
    underline-thickness="58"
    underline-position="-61"
    unicode-range="U+0020-U+2122"
  />
<missing-glyph horiz-adv-x="800" 
d="M50 0v800h700v-800h-700zM700 50v700h-600v-700h600z" />
    <glyph glyph-name=".notdef" horiz-adv-x="800" 
d="M50 0v800h700v-800h-700zM700 50v700h-600v-700h600z" />
    <glyph glyph-name="space" unicode=" " horiz-adv-x="250" 
 />
    <glyph glyph-name="exclam" unicode="!" horiz-adv-x="333" 
d="M122 241l-43 320v189h176v-189l-43 -320h-90zM252 0h-169v171h169v-171z" />
    <glyph glyph-name="quotedbl" unicode="&#x22;" horiz-adv-x="333" 
d="M318 468h-119v271h119v-271zM135 468h-119v271h119v-271z" />
    <glyph glyph-name="numbersign" unicode="#" 
d="M465 336v-114h-101l-30 -222h-87l29 222h-85l-30 -222h-90l30 222h-92v114h108l14 94h-94v115h108l28 205h87l-27 -205h86l27 205h90l-28 -205h83v-115h-99l-12 -94h85zM304 430h-86l-12 -94h86z" />
    <glyph glyph-name="dollar" unicode="$" 
d="M271 267v-167c20.667 4 38 12.667 52 26s21 30 21 50c0 5.33301 -0.333008 9.33301 -1 12l-6 25c-4 16 -26 34 -66 54zM14 215l139.001 -0.00292969l10 -74c9.33301 -20 28.333 -34.333 57 -43v187c-69.333 32.667 -117 62.667 -143 90
c-37.333 38.667 -56 90.334 -56 155.001c0 53.333 18.333 98.333 55 135s81 55 133 55v66h88v-66c57.333 -5.33301 102.333 -27 135 -65s49 -86.667 49 -146h-140c0 25.333 -4.33301 46 -13 62c-10.667 20.667 -27.334 32.334 -50.001 35.001v-175
c71.333 -30 120.333 -58 147 -84c39.333 -38 59 -89.333 59 -154c0 -63.333 -17 -114 -51 -152s-82 -57 -144 -57v-110h-88v111c-68 11.333 -116.167 34.833 -144.5 70.5s-42.5 88.834 -42.5 159.501zM227.001 455.997v151.999c-22.667 -6.66699 -38 -13.667 -46 -21
c-12.667 -11.333 -19 -27.666 -19 -48.999c0 -20 5.83301 -37.167 17.5 -51.5s27.5 -24.5 47.5 -30.5z" />
    <glyph glyph-name="percent" unicode="%" horiz-adv-x="833" 
d="M184 363c-59.333 0 -101.667 16.667 -127 50c-22 29.333 -33 75 -33 137c0 58.667 11.667 103.334 35 134.001c26 34.667 67.667 52 125 52c58 0 99.167 -14.833 123.5 -44.5s36.5 -76.834 36.5 -141.501c0 -62 -9 -106.333 -27 -133c-24 -36 -68.333 -54 -133 -54z
M183.999 454c16 0 27 8.66699 33 26c4 12 6 29 6 51v20v15c0 5.33301 0.333008 11 1 17c0 19.333 -2 33.333 -6 42c-6 13.333 -17.333 20 -34 20c-15.333 1.33301 -25.833 -4.33398 -31.5 -17.001s-8.5 -29 -8.5 -49c0.666992 -13.333 1 -22.666 1 -27.999
c0 -6 -0.166992 -12 -0.5 -18s-0.5 -12 -0.5 -18c0 -20.667 2.5 -36 7.5 -46s15.833 -15 32.5 -15zM627.999 750l-336 -768h-84l338 768h82zM649.999 369c60 0 102.332 -16.333 126.999 -49c22 -28.667 33 -74.334 33 -137.001c0 -62 -9 -106.333 -27 -133
c-24 -36 -68.333 -54 -133 -54c-59.333 0 -101.666 16.667 -126.999 50c-22 29.333 -33 75 -33 137c0 58.667 11.667 103.334 35 134.001c26 34.667 67.667 52 125 52zM649.998 278c-16 1.33301 -26.667 -4.16699 -32 -16.5s-8 -28.5 -8 -48.5
c0.666992 -13.333 1 -22.666 1 -27.999c0 -6 -0.166992 -12 -0.5 -18s-0.5 -12 -0.5 -18c0 -20 2.5 -35.333 7.5 -46s15.833 -16 32.5 -16c16 0 27 8.66699 33 26c4 12 6 29 6 51v21c0.666992 13.333 1 23.666 1 30.999c0 19.333 -2 33.333 -6 42
c-6 13.333 -17.333 20 -34 20z" />
    <glyph glyph-name="ampersand" unicode="&#x26;" horiz-adv-x="667" 
d="M371 150l-117.001 180.999c-18 -19.333 -31 -37.666 -39 -54.999s-12 -38 -12 -62c0 -26.667 8.83301 -49.5 26.5 -68.5s39.834 -28.5 66.501 -28.5c12 0 25 3.33301 39 10c8.66699 4 20.667 11.667 36 23zM307.999 657.999c-13.333 0 -24 -4.33496 -32 -13.002
s-12 -19.667 -12 -33c0 -16 4 -32.167 12 -48.5s18 -30.166 30 -41.499c12.667 6.66699 24.667 18.834 36 36.501s17 33.5 17 47.5c0 34.667 -17 52 -51 52zM465.999 -0.00292969l-26.999 43.002c-47.333 -40.667 -103 -61 -167 -61c-68 0 -122.5 20.167 -163.5 60.5
s-61.5 94.5 -61.5 162.5c0 51.333 11.833 97 35.5 137s58.167 74 103.5 102c-40.667 50 -61 105.667 -61 167c0 49.333 21 88.666 63 117.999c37.333 26 81.333 39 132 39c52 0 95.667 -14.167 131 -42.5s53 -68.5 53 -120.5c0 -40.667 -11.5 -76.667 -34.5 -108
s-53.833 -57 -92.5 -77l41 -63c17.333 -26.667 30.666 -48 39.999 -64l22 106h129c0 -40 -5.83301 -78.833 -17.5 -116.5s-28.167 -77.834 -49.5 -120.501l103 -162h-179z" />
    <glyph glyph-name="quotesingle" unicode="'" horiz-adv-x="250" 
d="M185 468h-119v271h119v-271z" />
    <glyph glyph-name="parenleft" unicode="(" horiz-adv-x="278" 
d="M137 750l121 0.000976562c-28 -72 -48.667 -148.167 -62 -228.5s-20 -162.5 -20 -246.5c0 -82.667 6.83301 -162.334 20.5 -239.001s35.5 -151 65.5 -223h-125c-28.667 68 -49.667 121.667 -63 161c-16.667 49.333 -29.167 99.5 -37.5 150.5s-12.5 108.833 -12.5 173.5
c0 78 10 155.333 30 232c18 68 45.667 141.333 83 220z" />
    <glyph glyph-name="parenright" unicode=")" horiz-adv-x="278" 
d="M141 -187l-121 -0.000976562c28 72 48.667 148.167 62 228.5s20 162.5 20 246.5c0 82.667 -6.83301 162.334 -20.5 239.001s-35.5 151 -65.5 223h125c28.667 -68 49.667 -121.667 63 -161c16.667 -49.333 29.167 -99.5 37.5 -150.5s12.5 -108.833 12.5 -173.5
c0 -78 -9.5 -153.167 -28.5 -225.5s-47.167 -147.833 -84.5 -226.5z" />
    <glyph glyph-name="asterisk" unicode="*" 
d="M205 634v116h93v-113l109 42l30 -92l-114 -35l78 -101l-74 -58l-77 103l-71 -100l-78 54l77 99l-114 33l30 90z" />
    <glyph glyph-name="plus" unicode="+" 
d="M193 307v185h115v-185h167v-115h-167v-192h-115v192h-167v115h167z" />
    <glyph glyph-name="comma" unicode="," horiz-adv-x="333" 
d="M82 -156v56.999c26.667 0 48.5 9.33301 65.5 28s25.5 42.334 25.5 71.001h-91v171h169v-172c0 -50.667 -15.333 -89.167 -46 -115.5s-71.667 -39.5 -123 -39.5z" />
    <glyph glyph-name="hyphen" unicode="-" horiz-adv-x="333" 
d="M291 237h-248v150h248v-150z" />
    <glyph glyph-name="period" unicode="." horiz-adv-x="333" 
d="M251 0h-169v171h169v-171z" />
    <glyph glyph-name="slash" unicode="/" horiz-adv-x="278" 
d="M79 -94h-107l225 844h110z" />
    <glyph glyph-name="zero" unicode="0" 
d="M305 201v337c0 22 -1.33301 37.667 -4 47c-8 26.667 -24.667 40 -50 40c-24 0 -40 -9 -48 -27c-5.33301 -12 -8 -32 -8 -60v-337c0 -30 2.33301 -51 7 -63c8 -20.667 24.333 -31 49 -31c24 0 40 12.333 48 37c4 12.667 6 31.667 6 57zM28 189v349.001
c0 72.667 18.833 126.167 56.5 160.5s93.167 51.5 166.5 51.5c86 0 145.333 -21.333 178 -64c28.667 -37.333 43 -101 43 -191v-270c0 -85.333 -15.667 -146.333 -47 -183c-34 -40 -92.667 -60 -176 -60c-72 0 -126.833 16.667 -164.5 50s-56.5 85.666 -56.5 156.999z" />
    <glyph glyph-name="one" unicode="1" 
d="M190 0v506h-153v115c48 0 89 7.66699 123 23c42.667 19.333 68 49.333 76 90h113v-734h-159z" />
    <glyph glyph-name="two" unicode="2" 
d="M183 479l-159 -0.000976562v39c0 74.667 19.667 132 59 172s96.333 60 171 60c69.333 0 122.833 -17.167 160.5 -51.5s56.5 -85.833 56.5 -154.5c0 -44.667 -7.33301 -83 -22 -115s-38.667 -65.333 -72 -100l-65 -63c-22.667 -22 -41.334 -41.667 -56.001 -59
c-24.667 -29.333 -39 -53.333 -43 -72h259v-135h-449v25c0 56.667 16 114.334 48 173.001c24 44 60.333 92.667 109 146l76 80c17.333 19.333 29.666 38.666 36.999 57.999s11 42.333 11 69c0 22 -4.66699 39.667 -14 53c-11.333 16 -27.666 23 -48.999 21
c-23.333 0 -39.666 -13.333 -48.999 -40c-6 -17.333 -9 -40.666 -9 -69.999v-36z" />
    <glyph glyph-name="three" unicode="3" 
d="M157 322l-0.000976562 119.999h13c20 0 37 1.16699 51 3.5s26.5 7.33301 37.5 15s19.333 20.167 25 37.5s8.5 33.333 8.5 48c0 25.333 -3.66699 43.666 -11 54.999c-9.33301 14.667 -25.333 22 -48 22s-38 -10.333 -46 -31c-5.33301 -13.333 -8 -34 -8 -62v-16h-160l1 55
c0 52.667 23 96.667 69 132c42.667 32.667 92 49 148 49c67.333 0 119 -15 155 -45c39.333 -32.667 59 -82 59 -148c0 -40.667 -7.83301 -74.5 -23.5 -101.5s-41.5 -48.833 -77.5 -65.5c42.667 -11.333 74 -35.666 94 -72.999c16.667 -30.667 25 -68.667 25 -114
c0 -74 -20 -129.333 -60 -166s-97.333 -55 -172 -55c-68.667 0 -122 18 -160 54s-57 87.333 -57 154l-1 51h158v-24c0 -33.333 3 -57.666 9 -72.999c9.33301 -24.667 27.666 -37 54.999 -37c24 0 41 10.667 51 32c6.66699 14.667 10 36 10 64c0 29.333 -3.5 52.333 -10.5 69
s-15.667 28.167 -26 34.5s-22.166 10.333 -35.499 12s-28.666 2.5 -45.999 2.5h-17c-4.66699 0.666992 -8 1 -10 1z" />
    <glyph glyph-name="four" unicode="4" 
d="M135 268h124v243zM9 143v140l234 451h175v-466h66v-125h-66v-143h-159v143h-250z" />
    <glyph glyph-name="five" unicode="5" 
d="M182 325l-147.001 -0.00195312l19 409h388v-135h-261l-7 -140c34.667 30.667 73.667 46 117 46c70 0 119.667 -27.333 149 -82c22 -41.333 33 -100.333 33 -177c0 -86.667 -16.333 -151 -49 -193c-36.667 -47.333 -97 -71 -181 -71
c-63.333 0 -111.666 14.667 -144.999 44s-56 75.333 -68 138v57h158c2 -23.333 4.33301 -46.666 7 -69.999c7.33301 -29.333 24.333 -44 51 -44c26 0 43.333 15.667 52 47c5.33301 18.667 8 44.334 8 77.001v24c0 36.667 -3 63.667 -9 81c-10 29.333 -28.667 44 -56 44
c-36 0 -55.667 -18.333 -59 -55z" />
    <glyph glyph-name="six" unicode="6" 
d="M250 107c21.333 0 36.667 10.667 46 32c7.33301 16.667 11 38.667 11 66v75c0 24 -3.66699 42 -11 54c-9.33301 16 -25.333 24 -48 24c-20 0 -34 -7 -42 -21s-12 -32.333 -12 -55v-110c0 -19.333 4.5 -35 13.5 -47s23.167 -18 42.5 -18zM463.001 556l-159 0.000976562
c0 22 -3.33301 38.333 -10 49c-8.66699 13.333 -23.667 20 -45 20c-22 0 -37.333 -11 -46 -33c-6 -16 -9 -38 -9 -66v-30v-50c20 15.333 37.5 25.333 52.5 30s35.5 7 61.5 7c62 0 106.667 -23.333 134 -70c21.333 -36.667 32 -88.334 32 -155.001c0 -92 -15 -159 -45 -201
c-36 -50 -97.667 -75 -185 -75c-78.667 0 -135.667 25 -171 75c-30.667 43.333 -46 106.333 -46 189v198c0 96.667 11 167 33 211c32 63.333 90.333 95 175 95c76 0 131.667 -13.333 167 -40c40.667 -30.667 61 -82 61 -154z" />
    <glyph glyph-name="seven" unicode="7" 
d="M24 599l-0.000976562 135h432v-125c-29.333 -52 -55.666 -109.667 -78.999 -173c-19.333 -52.667 -38 -113.667 -56 -183c-11.333 -42.667 -20 -82.667 -26 -120s-12 -81.666 -18 -132.999h-173c0 48 13.667 119.333 41 214c24.667 85.333 49.667 155.666 75 210.999
l78 174h-274z" />
    <glyph glyph-name="eight" unicode="8" 
d="M249 104c27.333 0 45.668 13.333 55.001 40c5.33301 16 8 41.333 8 76s-2.66699 59 -8 73c-9.33301 25.333 -28.333 38 -57 38c-24.667 0 -41.334 -10 -50.001 -30c-6 -13.333 -9 -34.333 -9 -63v-21c0 -32 2.66699 -56 8 -72c9.33301 -27.333 27 -41 53 -41z
M192.002 537c0 -24 3.33398 -42.998 10.001 -56.998c9.33301 -19.333 24.666 -29 45.999 -29c23.333 0 40 9.66699 50 29c8 15.333 12 35.666 12 60.999c0 23.333 -3.66699 42.666 -11 57.999c-10 20 -25.667 30 -47 30c-24 0 -40.667 -9.66699 -50 -29
c-6.66699 -14 -10 -35 -10 -63zM121.003 394.002c-31.333 18 -53.835 39.832 -67.502 65.499s-20.5 56.834 -20.5 93.501c0 64.667 19.333 113.667 58 147s91.334 50 158.001 50c68 0 121.333 -16.5 160 -49.5s58 -82.167 58 -147.5c0 -34.667 -6.66699 -64.667 -20 -90
c-15.333 -28 -39 -50.333 -71 -67c37.333 -22.667 62.5 -47.167 75.5 -73.5s19.5 -62.833 19.5 -109.5c0 -80.667 -19.333 -139.334 -58 -176.001s-98 -55 -178 -55c-64 0 -114.333 20.333 -151 61s-55 97.334 -55 170.001c0 44 5 77.333 15 100
c12.667 28 38.334 55 77.001 81z" />
    <glyph glyph-name="nine" unicode="9" 
d="M251 625c-24 0 -40.334 -13.667 -49.001 -41c-5.33301 -16.667 -8 -41.667 -8 -75v-17c0 -38.667 1.66699 -64 5 -76c8 -28 26 -42 54 -42c22.667 0 38.334 10.333 47.001 31c5.33301 13.333 8 34 8 62v20v19.5c0 7 0.333008 14.167 1 21.5c0 30 -3 52 -9 66
c-8.66699 20.667 -25 31 -49 31zM37.999 176l159 -0.000976562c0 -22 3.83301 -39 11.5 -51s22.167 -18 43.5 -18c22 0 37.333 11 46 33c6 16 9 38 9 66v30v50c-20 -15.333 -37.5 -25.333 -52.5 -30s-35.5 -7 -61.5 -7c-62 0 -106.667 23.333 -134 70
c-21.333 36.667 -32 88.334 -32 155.001c0 92 15 159 45 201c36 50 97.667 75 185 75c78.667 0 135.667 -25 171 -75c30.667 -43.333 46 -106.333 46 -189v-198c0 -96.667 -11 -167 -33 -211c-32 -63.333 -90.333 -95 -175 -95c-76 0 -131.667 13.333 -167 40
c-40.667 30.667 -61 82 -61 154z" />
    <glyph glyph-name="colon" unicode=":" horiz-adv-x="278" 
d="M224 384h-169v171h169v-171zM224 0h-169v171h169v-171z" />
    <glyph glyph-name="semicolon" unicode=";" horiz-adv-x="278" 
d="M55 -156v56.999c26.667 0 48.5 9.33301 65.5 28s25.5 42.334 25.5 71.001h-91v171h169v-172c0 -50.667 -15.333 -89.167 -46 -115.5s-71.667 -39.5 -123 -39.5zM224 383.999h-169v171h169v-171z" />
    <glyph glyph-name="less" unicode="&#x3c;" 
d="M162 250l297 -162v-111l-417 225v99l417 227v-111z" />
    <glyph glyph-name="equal" unicode="=" 
d="M475 405v-115h-449v115h449zM475 210v-115h-449v115h449z" />
    <glyph glyph-name="greater" unicode="&#x3e;" 
d="M42 88l297 162l-297 167v111l417 -227v-99l-417 -225v111z" />
    <glyph glyph-name="question" unicode="?" 
d="M179 531h-159.002c0 70.667 19.833 127.834 59.5 171.501s93.834 65.5 162.501 65.5c66.667 0 120.334 -14.667 161.001 -44c45.333 -32.667 68 -81.334 68 -146.001c0 -29.333 -5.5 -55.833 -16.5 -79.5s-27.5 -49.167 -49.5 -76.5l-33 -40l-32 -41
c-11.333 -16 -18.5 -30.167 -21.5 -42.5s-5.83301 -31.833 -8.5 -58.5h-151c0 37.333 1.16699 65.333 3.5 84s9.5 37.667 21.5 57c47.333 58.667 75.333 95.334 84 110.001c18 30 27 55.333 27 76c0 19.333 -4.66699 35.166 -14 47.499s-23.333 18.5 -42 18.5
c-26 0 -43.333 -11 -52 -33c-5.33301 -14 -8 -37 -8 -69zM317.998 0h-170v171h169z" />
    <glyph glyph-name="at" unicode="@" horiz-adv-x="830" 
d="M503 370c0 33.333 -5.66797 59.666 -17.001 78.999c-14 23.333 -35.667 35 -65 35c-30.667 0 -57.167 -12.833 -79.5 -38.5s-33.5 -55.167 -33.5 -88.5c0 -32.667 6.33301 -58.167 19 -76.5s30 -29.166 52 -32.499c3.33301 -0.666992 8.33301 -1 15 -1
c30 0 55.667 14 77 42c18.667 24 29.334 51 32.001 81zM536.999 516l11.002 53h98l-53 -308c-2 -8.66699 -0.833008 -14.834 3.5 -18.501s9.83301 -4.5 16.5 -2.5c8.66699 2.66699 19.5 10.167 32.5 22.5s24.833 26.166 35.5 41.499c7.33301 10.667 15 28.167 23 52.5
s12 46.5 12 66.5c0 83.333 -26.167 149.5 -78.5 198.5s-121.166 73.5 -206.499 73.5c-92 0 -167.833 -29.833 -227.5 -89.5s-89.5 -135.5 -89.5 -227.5c0 -95.333 32 -172.666 96 -231.999s143.333 -89 238 -89c37.333 0 74.333 8.66699 111 26
c31.333 14.667 62.666 36.334 93.999 65.001h96c-38 -52 -83.333 -92.667 -136 -122s-110.334 -44 -173.001 -44c-112 0 -207.167 37.833 -285.5 113.5s-117.5 169.834 -117.5 282.501c0 111.333 38.167 204.166 114.5 278.499s170.5 111.5 282.5 111.5
c48 0 92 -6.5 132 -19.5s77.833 -34.667 113.5 -65s63.667 -65 84 -104s30.5 -81.5 30.5 -127.5c0 -43.333 -6.16699 -82.333 -18.5 -117s-32.833 -66.667 -61.5 -96c-20.667 -21.333 -49 -41.333 -85 -60s-67.667 -28 -95 -28c-11.333 0 -21.5 4.5 -30.5 13.5
s-13.5 21.167 -13.5 36.5c0 3.33301 0.666992 8.33301 2 15c-44.667 -40.667 -86.334 -61 -125.001 -61c-52 0 -93.167 17.333 -123.5 52s-45.5 78.667 -45.5 132c0 64 19 119 57 165c40.667 48.667 92.334 73 155.001 73c27.333 0 51.666 -4.83301 72.999 -14.5
s39.333 -25.167 54 -46.5z" />
    <glyph glyph-name="A" unicode="A" horiz-adv-x="556" 
d="M186 0h-177l164 750h212l163 -750h-178l-25 146h-138zM328 278l-49 336l-53 -336h102z" />
    <glyph glyph-name="B" unicode="B" horiz-adv-x="556" 
d="M220 320l-0.000976562 -184.998c43.333 0 69.333 1 78 3c31.333 7.33301 47 38.666 47 93.999c0 39.333 -11.333 64.666 -34 75.999c-15.333 8 -45.666 12 -90.999 12zM219.999 615.002l0.000976562 -160c44 0 72.333 3.66699 85 11c18.667 11.333 28 37.333 28 78
c0 32.667 -11 53.667 -33 63c-12.667 5.33301 -39.334 8 -80.001 8zM292 0.00195312h-248v750h228c73.333 0 129.333 -13.333 168 -40c46 -32 69 -83.333 69 -154c0 -35.333 -6.66699 -66.5 -20 -93.5s-35 -48.5 -65 -64.5c38.667 -23.333 64.5 -47.333 77.5 -72
s19.5 -61 19.5 -109c0 -73.333 -19.833 -127.833 -59.5 -163.5s-96.167 -53.5 -169.5 -53.5z" />
    <glyph glyph-name="C" unicode="C" horiz-adv-x="556" 
d="M515 488l-175.998 0.000976562v48c0 64.667 -18.667 97 -56 97c-26 0 -43.833 -6.33301 -53.5 -19s-14.5 -32.334 -14.5 -59.001l-1 -371c0 -22 5 -38.667 15 -50s26 -17 48 -17c26.667 0 45 12 55 36c6.66699 16 10 40 10 72v68h176v-92
c0 -68 -19.667 -120.667 -59 -158c-43.333 -40.667 -108.333 -61 -195 -61c-78.667 0 -135.834 20.167 -171.501 60.5s-53.5 99.833 -53.5 178.5v308c0 81.333 19.167 141.5 57.5 180.5s97.833 58.5 178.5 58.5c77.333 0 136.666 -17.5 177.999 -52.5s62 -89.833 62 -164.5
v-63z" />
    <glyph glyph-name="D" unicode="D" horiz-adv-x="556" 
d="M283 0h-237.001v750h191c42 0 79 -2.16699 111 -6.5s61 -13.833 87 -28.5c30.667 -18 52.334 -44.667 65.001 -80c9.33301 -26.667 14 -61.667 14 -105v-333c0 -76.667 -25 -130.667 -75 -162c-21.333 -14 -44.5 -23.333 -69.5 -28s-53.833 -7 -86.5 -7zM221.999 615
v-480c54.667 0 88.667 10.667 102 32c9.33301 14.667 14 50.667 14 108v245c0 41.333 -7.66699 67.5 -23 78.5s-46.333 16.5 -93 16.5z" />
    <glyph glyph-name="E" unicode="E" 
d="M461 0h-415v750h403v-150h-227v-138h220v-150h-220v-162h239v-150z" />
    <glyph glyph-name="F" unicode="F" 
d="M225 0h-176v750h414v-150h-238v-133h219v-150h-219v-317z" />
    <glyph glyph-name="G" unicode="G" horiz-adv-x="556" 
d="M512 -1l-120.002 0.000976562l-8 67c-18.667 -32 -39.167 -54 -61.5 -66s-53.166 -18 -92.499 -18c-70 0 -121.333 22.667 -154 68c-28.667 40 -43 97 -43 171v308c0 81.333 19.167 141.5 57.5 180.5s97.833 58.5 178.5 58.5c77.333 0 136.5 -17.5 177.5 -52.5
s61.5 -89.833 61.5 -164.5v-56h-176v41c0 35.333 -3 59.333 -9 72c-8 16.667 -23.333 25 -46 25c-26 0 -43.833 -6.33301 -53.5 -19s-14.5 -32.334 -14.5 -59.001v-371c0 -22 5.16699 -38.667 15.5 -50s26.833 -17 49.5 -17c26.667 0 44.334 10 53.001 30
c6 13.333 9 35.333 9 66v59h-63v135h239v-408z" />
    <glyph glyph-name="H" unicode="H" horiz-adv-x="556" 
d="M217 0h-176v750h176v-288h122v288h176v-750h-176v312h-122v-312z" />
    <glyph glyph-name="I" unicode="I" horiz-adv-x="278" 
d="M227 0h-176v750h176v-750z" />
    <glyph glyph-name="J" unicode="J" horiz-adv-x="444" 
d="M7 250l141 0.000976562v-95c0 -25.333 12 -38 36 -38c13.333 0 22.333 1.66699 27 5s7 10.666 7 21.999l1 606h176v-522v-20c0 -36 -0.666992 -59.667 -2 -71c-3.33301 -26 -10.333 -49.333 -21 -70c-17.333 -32 -42.333 -54.667 -75 -68
c-27.333 -11.333 -62 -17 -104 -17c-44.667 0 -83 10.333 -115 31s-53 51.667 -63 93c-3.33301 12 -5.5 25.333 -6.5 40s-1.5 26.667 -1.5 36v25v43z" />
    <glyph glyph-name="K" unicode="K" horiz-adv-x="556" 
d="M220 0h-176v750h176v-300l132 300h180l-160 -331l170 -419h-186l-97 261l-39 -76v-185z" />
    <glyph glyph-name="L" unicode="L" horiz-adv-x="444" 
d="M428 0h-391v750h176v-600h215v-150z" />
    <glyph glyph-name="M" unicode="M" horiz-adv-x="778" 
d="M216 0h-167v750h248l91 -443l96 443h246v-750h-168l18 588l-126 -588h-131l-121 588z" />
    <glyph glyph-name="N" unicode="N" horiz-adv-x="556" 
d="M333 0l-137 420l-2 -2l16 -418h-167v750h181l136 -419l-14 419h167v-750h-180z" />
    <glyph glyph-name="O" unicode="O" horiz-adv-x="556" 
d="M341 224l0.000976562 307.999c0 30.667 -3 53.334 -9 68.001c-9.33301 22 -27 33 -53 33c-24.667 0 -42 -11 -52 -33c-7.33301 -16 -11 -38.667 -11 -68v-308c0 -30 3.33301 -53 10 -69c10.667 -25.333 28.667 -38 54 -38s42.666 12.333 51.999 37c6 16 9 39.333 9 70z
M517.001 543.999v-305c0 -88 -17 -152 -51 -192c-37.333 -43.333 -99.333 -65 -186 -65s-149 21.667 -187 65c-35.333 40 -53 104 -53 192v305c0 72 20.667 127.333 62 166s100.666 58 177.999 58c76.667 0 135.334 -19.333 176.001 -58s61 -94 61 -166z" />
    <glyph glyph-name="P" unicode="P" horiz-adv-x="556" 
d="M229 615l-0.000976562 -188h25c16 0 29.833 1.16699 41.5 3.5s22.5 7.5 32.5 15.5c8.66699 9.33301 14.5 20.166 17.5 32.499s4.5 26.833 4.5 43.5c0 20.667 -1.66699 37 -5 49c-5.33301 19.333 -14.666 32 -27.999 38c-7.33301 2.66699 -15.5 4.33398 -24.5 5.00098
s-20.5 1 -34.5 1h-10h-19zM228.999 0l-176 -0.00292969v750h209c45.333 0 83.333 -3.33301 114 -10c46 -10 79.667 -27.333 101 -52c18.667 -21.333 32 -46.666 40 -75.999c6 -22.667 9 -51.667 9 -87c0 -48 -6.33301 -88.333 -19 -121
c-16 -41.333 -42.667 -70.666 -80 -87.999c-19.333 -9.33301 -40.5 -15.666 -63.5 -18.999s-49.5 -5 -79.5 -5h-55v-292z" />
    <glyph glyph-name="Q" unicode="Q" horiz-adv-x="556" 
d="M517 544v-305c0 -41.333 -3.83301 -77.333 -11.5 -108s-20.167 -56.667 -37.5 -78l82 -88l-103 -88l-99 111c-20 -4 -42.667 -6 -68 -6c-86.667 0 -149 21.667 -187 65c-35.333 40 -53 104 -53 192v305c0 72 20.667 127.333 62 166s100.666 58 177.999 58
c76.667 0 135.334 -19.333 176.001 -58s61 -94 61 -166zM216 532l0.000976562 -308.001c0 -30 3.33301 -53 10 -69c10.667 -25.333 28.667 -38 54 -38s42.666 12.333 51.999 37c6 16 9 39.333 9 70v308c0 30.667 -3 53.334 -9 68.001c-9.33301 22 -27 33 -53 33
c-24.667 0 -42 -11 -52 -33c-7.33301 -16 -11 -38.667 -11 -68z" />
    <glyph glyph-name="R" unicode="R" horiz-adv-x="556" 
d="M218 615l0.000976562 -184h60c23.333 0 39.666 8.83301 48.999 26.5s14 39.834 14 66.501c0 41.333 -9.66699 67.666 -29 78.999c-14 8 -45.333 12 -94 12zM218.001 296v-296h-176v750h257c74 0 128.5 -16.167 163.5 -48.5s52.5 -85.166 52.5 -158.499
c0 -44 -6 -78.333 -18 -103c-14 -28.667 -39 -51.334 -75 -68.001c26 -6.66699 47 -18.667 63 -36s24 -38.333 24 -63c0 -36 1.5 -78.5 4.5 -127.5s6.83301 -85.5 11.5 -109.5c4.66699 -11.333 10.334 -20 17.001 -26v-10h-192c-3.33301 9.33301 -5.83301 17 -7.5 23
s-2.5 12.667 -2.5 20v72v14v12c0 31.333 -1.33301 58.333 -4 81s-8.33398 40.667 -17.001 54s-23 20 -43 20h-58z" />
    <glyph glyph-name="S" unicode="S" 
d="M16 251l163.002 0.00292969v-53c0 -24.667 5.16699 -44.334 15.5 -59.001s28.5 -22 54.5 -22c19.333 0 34 7.16699 44 21.5s15 32.166 15 53.499c0 27.333 -10.333 50.666 -31 69.999c-8.66699 8 -31 23 -67 45c-31.333 18 -56 33.333 -74 46
c-24 16.667 -43.833 34.334 -59.5 53.001s-28 40.334 -37 65.001s-13.5 52.667 -13.5 84c0 69.333 19.5 122.166 58.5 158.499s93.167 54.5 162.5 54.5c74 0 130.333 -22.667 169 -68c36 -42.667 54 -101 54 -175h-162c0 32.667 -2.33301 56 -7 70
c-8.66699 25.333 -25.667 38 -51 38c-40.667 0 -61 -16 -61 -48c-0.666992 -6.66699 -1 -11.334 -1 -14.001c0 -16.667 4.66699 -31.167 14 -43.5s22.666 -24.5 39.999 -36.5l91 -54c31.333 -18.667 55.666 -36 72.999 -52c22 -20.667 38.333 -44.5 49 -71.5
s16 -62.833 16 -107.5c0 -72 -19.333 -127.333 -58 -166s-94.667 -58 -168 -58c-76 0 -134.333 19 -175 57c-36 34 -54 78 -54 132v80z" />
    <glyph glyph-name="T" unicode="T" 
d="M22 600v150h456v-150h-142v-600h-176v600h-138z" />
    <glyph glyph-name="U" unicode="U" horiz-adv-x="556" 
d="M42 207l-0.000976562 542.999h176v-566c0 -21.333 3.66699 -37 11 -47c10 -13.333 26.667 -20 50 -20c20.667 0 36.334 8 47.001 24c8.66699 13.333 13 29.333 13 48v561h176v-543c0 -69.333 -17 -122.666 -51 -159.999c-39.333 -43.333 -101.333 -65 -186 -65
c-76.667 0 -134.667 18 -174 54c-41.333 38 -62 95 -62 171z" />
    <glyph glyph-name="V" unicode="V" horiz-adv-x="556" 
d="M381 0h-207l-163 750h176l90 -526l92 526h176z" />
    <glyph glyph-name="W" unicode="W" horiz-adv-x="778" 
d="M476 750l68 -526l57 526h167l-125 -750h-198l-54 528l-60 -528h-195l-126 750h170l53 -527l2 2l71 525h170z" />
    <glyph glyph-name="X" unicode="X" horiz-adv-x="556" 
d="M197 750l82 -228l82 228h176l-156 -376l163 -374h-176l-85 224l-102 -224h-168l167 374l-158 376h175z" />
    <glyph glyph-name="Y" unicode="Y" horiz-adv-x="556" 
d="M189 750l88 -245l92 245h176l-181 -435v-315h-176v315l-177 435h178z" />
    <glyph glyph-name="Z" unicode="Z" horiz-adv-x="444" 
d="M26 600v150h398v-140l-218 -460h228v-150h-424v134l222 466h-206z" />
    <glyph glyph-name="bracketleft" unicode="[" horiz-adv-x="278" 
d="M42 -187v937h220v-95h-81v-747h81v-95h-220z" />
    <glyph glyph-name="backslash" unicode="\" horiz-adv-x="250" 
d="M-99 750h126l323 -750h-126z" />
    <glyph glyph-name="bracketright" unicode="]" horiz-adv-x="278" 
d="M236 750v-937h-220v95h81v747h-81v95h220z" />
    <glyph glyph-name="asciicircum" unicode="^" 
d="M117 326l-102 47l176 377h118l176 -377l-102 -47l-134 279z" />
    <glyph glyph-name="underscore" unicode="_" 
d="M500 -119h-500v58h500v-58z" />
    <glyph glyph-name="grave" unicode="`" horiz-adv-x="333" 
d="M-38 782h208l100 -148h-137z" />
    <glyph glyph-name="a" unicode="a" 
d="M301 184v87.999l-52.5 -24c-9 -4 -18.667 -9.83301 -29 -17.5s-18.833 -17.167 -25.5 -28.5s-10 -25.666 -10 -42.999c0 -18 5.16699 -32.5 15.5 -43.5s24.833 -16.5 43.5 -16.5c20.667 0 36 9.66699 46 29c8 15.333 12 34 12 56zM318 -0.000976562l-10.999 50.002
c-20.667 -23.333 -41.334 -40.5 -62.001 -51.5s-45.667 -16.5 -75 -16.5c-45.333 0 -81 13.667 -107 41s-39 63.666 -39 108.999c0 57.333 14.333 102 43 134c20.667 23.333 52.667 42 96 56l95 31c28.667 13.333 43 33 43 59c0 16.667 -4.5 30.5 -13.5 41.5
s-21.167 16.5 -36.5 16.5c-26 0 -43.333 -8.66699 -52 -26c-6 -12 -9 -32.333 -9 -61h-159c0 67.333 19.667 117 59 149c36 29.333 88 44 156 44c78.667 0 134 -13 166 -39s48 -70 48 -132v-343c0 -8.66699 1.16699 -18.334 3.5 -29.001s5.5 -21.667 9.5 -33h-155z" />
    <glyph glyph-name="b" unicode="b" 
d="M305 209l0.000976562 145c0 28 -1.66699 47.333 -5 58c-6.66699 22 -20.334 33 -41.001 33c-20 0 -33.667 -8.5 -41 -25.5s-11 -41.167 -11 -72.5v-132c0 -30 3 -53 9 -69c8.66699 -22.667 22 -34 40 -34c22 0 36.333 11.667 43 35c4 13.333 6 34 6 62zM207.001 750
v-235.999c12.667 22.667 29.5 38.667 50.5 48s44.5 14 70.5 14c48 0 83.667 -21 107 -63c19.333 -34.667 29 -77.667 29 -129v-194c0 -58.667 -8.66699 -105.334 -26 -140.001c-22.667 -45.333 -60.334 -68 -113.001 -68c-26.667 0 -51.167 7.16699 -73.5 21.5
s-40.166 34.5 -53.499 60.5l-2 -64h-148v750h159z" />
    <glyph glyph-name="c" unicode="c" 
d="M456 352l-149.996 -0.000976562l-1 10l-6 64c-7.33301 23.333 -21.666 35 -42.999 35c-18.667 0 -31.334 -6 -38.001 -18s-10 -28.667 -10 -50v-231c0 -20 3.66699 -35.833 11 -47.5s20.666 -17.5 39.999 -17.5s33 10 41 30c6 15.333 9 36 9 62
c0 8 -0.166992 15.167 -0.5 21.5s-0.5 11.833 -0.5 16.5h154c0 -19.333 -1 -42.666 -3 -69.999s-5.33301 -48.333 -10 -63c-10 -33.333 -29 -59.333 -57 -78c-25.333 -16.667 -56.333 -27 -93 -31c-6.66699 0 -16.334 -0.5 -29.001 -1.5s-20.667 -1.5 -24 -1.5
c-60.667 0 -107.667 13 -141 39c-37.333 29.333 -56 74.333 -56 135v228c0 69.333 17.333 119.333 52 150c31.333 28 79.666 42 144.999 42c77.333 0 131.666 -17.5 162.999 -52.5s47 -92.167 47 -171.5z" />
    <glyph glyph-name="d" unicode="d" 
d="M200 347l-0.000976562 -145.001c0 -27.333 1.66699 -46.333 5 -57c6.66699 -22 20.334 -33 41.001 -33c19.333 0 32.333 8.5 39 25.5s10 40.833 10 71.5v132c0 40.667 -4 68.334 -12 83.001s-19.333 22 -34 22c-22 0 -36.333 -12 -43 -36c-4 -14 -6 -35 -6 -63z
M453.999 -0.000976562h-147.999v65c-32 -55.333 -74 -83 -126 -83c-52.667 0 -90.334 22.667 -113.001 68c-17.333 34 -26 80.667 -26 140v194c0 52.667 9.33301 95.667 28 129c23.333 42 59.333 63 108 63c22 0 42.833 -5.33301 62.5 -16s37.5 -27.667 53.5 -51l2 241h159
v-750z" />
    <glyph glyph-name="e" unicode="e" 
d="M197 359l110 0.000976562v55c0 14 -3.66699 26 -11 36c-10 14 -24.333 21 -43 21c-20.667 0 -35.167 -6.83301 -43.5 -20.5s-12.5 -31.834 -12.5 -54.501v-37zM466 254.001h-269.001v-98c0 -17.333 4 -31.5 12 -42.5s20.333 -16.5 37 -16.5c26 0 42.667 10.333 50 31
c4 11.333 6 33.333 6 66h158c0 -141.333 -69.333 -212 -208 -212c-62.667 0 -112.667 13 -150 39c-42.667 30 -64 75 -64 135v228c0 68 20.333 118 61 150c35.333 28 86.333 42 153 42c62.667 0 112.334 -11.667 149.001 -35c43.333 -28 65 -70.333 65 -127v-160z" />
    <glyph glyph-name="f" unicode="f" horiz-adv-x="333" 
d="M310 444h-68v-444h-159v444h-64v115h63l1 49c0 51.333 12.833 87.833 38.5 109.5s65.167 32.5 118.5 32.5h70v-115h-34c-10.667 0 -19 -1.5 -25 -4.5s-9 -7.83301 -9 -14.5v-57h68v-115z" />
    <glyph glyph-name="g" unicode="g" 
d="M199 363l0.000976562 -158.999c0 -18.667 3.33301 -33.334 10 -44.001s19 -16 37 -16c19.333 0 32.666 7.66699 39.999 23c5.33301 11.333 8 28 8 50v155c0 22.667 -3 39.667 -9 51c-8 15.333 -22.333 23 -43 23c-18 0 -30.333 -10 -37 -30c-4 -12 -6 -29.667 -6 -53z
M36.001 -30.999l159 -0.000976562c0 -21.333 3 -35.5 9 -42.5s20.333 -10.5 43 -10.5c18 1.33301 30.5 5 37.5 11s10.5 17.667 10.5 35v113c-17.333 -18.667 -35.666 -33.5 -54.999 -44.5s-39.333 -16.5 -60 -16.5c-46.667 0 -82.334 18.333 -107.001 55
c-22 32.667 -33 73 -33 121v194c0 52 9.66699 95 29 129c24 42 60 63 108 63c56.667 0 98.667 -28 126 -84l2 68h148v-571c0 -61.333 -20.667 -107.333 -62 -138c-36 -26.667 -86.333 -40 -151 -40c-67.333 0 -116.333 10 -147 30c-38 24.667 -57 67.334 -57 128.001z" />
    <glyph glyph-name="h" unicode="h" 
d="M205 750l0.000976562 -233.998c18 21.333 37.167 36.666 57.5 45.999s42.166 14 65.499 14c38 0 68.667 -12 92 -36s35 -54.333 35 -91v-449h-159v398c0 17.333 -3 29.666 -9 36.999s-18 11 -36 11c-16 0 -27.667 -5.83301 -35 -17.5s-11 -25.5 -11 -41.5v-387h-159v750
h159z" />
    <glyph glyph-name="i" unicode="i" horiz-adv-x="278" 
d="M219 0h-159v560h159v-560zM219 615h-159v135h159v-135z" />
    <glyph glyph-name="j" unicode="j" horiz-adv-x="278" 
d="M14 -189v114.999h20c12 0 20 4.83301 24 14.5s6 21.834 6 36.501v583h159v-574c0 -58.667 -8 -100.667 -24 -126c-20.667 -32.667 -57 -49 -109 -49h-76zM223 614.999h-159v135h159v-135z" />
    <glyph glyph-name="k" unicode="k" 
d="M199 0h-159v750h159v-377l111 187h174l-158 -225l160 -335h-167l-93 216l-27 -36v-180z" />
    <glyph glyph-name="l" unicode="l" horiz-adv-x="278" 
d="M219 0h-159v750h159v-750z" />
    <glyph glyph-name="m" unicode="m" horiz-adv-x="722" 
d="M38 560h147.999v-65c14 24.667 32 44.334 54 59.001s44.333 22 67 22c26 0 50 -6.5 72 -19.5s37.333 -31.167 46 -54.5c30.667 49.333 70 74 118 74c39.333 0 72.833 -10.333 100.5 -31s41.5 -49.334 41.5 -86.001v-459h-159v400c0 14.667 -3.16699 26 -9.5 34
s-17.166 12 -32.499 12c-28.667 0 -43 -15.333 -43 -46v-400h-159v400c-4 19.333 -8.83301 31.833 -14.5 37.5s-13.5 8.5 -23.5 8.5c-31.333 0 -47 -15.333 -47 -46v-400h-159v560z" />
    <glyph glyph-name="n" unicode="n" 
d="M49 560l147.999 0.000976562v-70c8.66699 22.667 23.667 42.667 45 60s44 26 68 26c39.333 0 72.833 -10.333 100.5 -31s41.5 -49.334 41.5 -86.001v-459h-159v400c0 14.667 -3.16699 26 -9.5 34s-17.166 12 -32.499 12c-28.667 0 -43 -15.333 -43 -46v-400h-159v560z
" />
    <glyph glyph-name="o" unicode="o" 
d="M42 156v228c0 68.667 19.333 118.667 58 150c34 28 84 42 150 42c138.667 0 208 -64 208 -192v-228c0 -60 -19.333 -104.667 -58 -134c-35.333 -26.667 -85.333 -40 -150 -40c-62 0 -111 13 -147 39c-40.667 29.333 -61 74.333 -61 135zM201 396l0.000976562 -250
c3.33301 -32.667 19.666 -49 48.999 -49c16 0 27.833 3.83301 35.5 11.5s12.167 20.167 13.5 37.5v250c0 20 -3.66699 35.833 -11 47.5s-20 17.5 -38 17.5c-17.333 0 -29.833 -6 -37.5 -18s-11.5 -27.667 -11.5 -47z" />
    <glyph glyph-name="p" unicode="p" 
d="M299 209l0.000976562 145c0 27.333 -1.66699 46.666 -5 57.999c-6.66699 22.667 -20.334 34 -41.001 34c-20 0 -33.667 -8.66699 -41 -26s-11 -41.666 -11 -72.999v-132c0 -30 3 -53 9 -69c8.66699 -22.667 22 -34 40 -34c22 0 36.333 11.667 43 35c4 13.333 6 34 6 62z
M42.001 560l148.001 0.000976562v-68c33.333 56 77.333 84 132 84c48 0 83.667 -21 107 -63c19.333 -34.667 29 -77.667 29 -129v-194c0 -58.667 -8.66699 -105.334 -26 -140.001c-22.667 -45.333 -60.334 -68 -113.001 -68c-18 0 -36 4.66699 -54 14
c-24 12.667 -44.667 31.667 -62 57l-2 -242h-159v749z" />
    <glyph glyph-name="q" unicode="q" 
d="M292 209l-0.000976562 132c0 30 -3 53.333 -9 70c-8.66699 23.333 -22 35 -40 35c-22 0 -36.333 -12 -43 -36c-4 -14 -6 -35 -6 -63v-145c0 -27.333 1.66699 -46.333 5 -57c6.66699 -22 20.334 -33 41.001 -33c20 0 33.667 8.5 41 25.5s11 40.833 11 71.5zM450.999 560
l0.000976562 -747.999h-159v241c-17.333 -24.667 -38.333 -43.334 -63 -56.001c-19.333 -10 -37.666 -15 -54.999 -15c-52.667 0 -90.334 22.667 -113.001 68c-17.333 34 -26 80.667 -26 140v194c0 52.667 9.33301 95.667 28 129c23.333 42 59.333 63 108 63
c55.333 0 98.666 -28 129.999 -84l2 68h148z" />
    <glyph glyph-name="r" unicode="r" horiz-adv-x="333" 
d="M42 560h148v-85c10.667 32 26.167 56.833 46.5 74.5s46.5 26.5 78.5 26.5v-180c-6.66699 1.33301 -14.334 2.33301 -23.001 3s-17 1 -25 1c-19.333 0 -32.666 -1.33301 -39.999 -4c-17.333 -6.66699 -26 -23.667 -26 -51v-345h-159v560z" />
    <glyph glyph-name="s" unicode="s" horiz-adv-x="444" 
d="M423 394l-149 -0.00195312c-3.33301 30.667 -6 48.334 -8 53.001c-6.66699 16 -21.667 24 -45 24c-16 0 -28.833 -3.83301 -38.5 -11.5s-14.5 -19.5 -14.5 -35.5s7.33301 -29.667 22 -41c6.66699 -4.66699 15.667 -10 27 -16c86 -39.333 134.667 -63 146 -71
c45.333 -32.667 68 -78 68 -136c0 -59.333 -20.667 -104.666 -62 -135.999c-37.333 -28 -87.333 -42 -150 -42c-66 0 -116.333 14.333 -151 43c-38 32 -57 80.667 -57 146h152c0 -24.667 3.33301 -43.667 10 -57c9.33301 -18 25 -27 47 -27c38 0 57 17.667 57 53
c0 18 -7 32.333 -21 43c-7.33301 4 -33.666 16 -78.999 36c-60 26.667 -101.333 53 -124 79c-26.667 30.667 -40 65.667 -40 105c0 57.333 20.667 101.333 62 132c36.667 27.333 85 41 145 41c61.333 0 109.666 -14.667 144.999 -44c38.667 -32 58 -78 58 -138z" />
    <glyph glyph-name="t" unicode="t" horiz-adv-x="333" 
d="M75 445l-62.999 0.000976562v115h63v160h159v-160h76v-115h-76v-295c0 -14.667 2.83301 -24.834 8.5 -30.501s14.5 -8.5 26.5 -8.5c7.33301 1.33301 15.666 2 24.999 2h16v-112c-14.667 -2 -31.667 -4 -51 -6s-36.333 -3 -51 -3c-88.667 0 -133 43 -133 129v324z" />
    <glyph glyph-name="u" unicode="u" 
d="M449 0l-147.999 -0.000976562v69c-9.33301 -23.333 -24.333 -43.666 -45 -60.999s-43.334 -26 -68.001 -26c-94.667 0 -142 39.333 -142 118v460h159v-401c0 -14.667 3 -26.167 9 -34.5s16 -12.5 30 -12.5c30.667 0 46 15.667 46 47v401h159v-560z" />
    <glyph glyph-name="v" unicode="v" horiz-adv-x="444" 
d="M169 560l53 -362l59 362h155l-123 -560h-182l-122 560h160z" />
    <glyph glyph-name="w" unicode="w" horiz-adv-x="667" 
d="M404 560l57 -362l46 362h152l-108 -560h-170l-45 291l-50 -291h-170l-107 560h154l45 -362l60 362h136z" />
    <glyph glyph-name="x" unicode="x" horiz-adv-x="444" 
d="M272 560h159l-125 -280l129 -280h-159l-51 161l-53 -161h-163l131 280l-125 280h158l47 -157z" />
    <glyph glyph-name="y" unicode="y" horiz-adv-x="444" 
d="M166 560l54.001 -362.002l57 362h156l-101 -479l-34 -137c-14 -45.333 -32.333 -77.666 -55 -96.999c-28 -24 -69.333 -36 -124 -36c-12 0 -23.333 0.666992 -34 2s-20.334 2.33301 -29.001 3v118l31 -4c10 -2 20.5 -0.5 31.5 4.5s16.5 12.833 16.5 23.5
c0 12.667 -2 28.334 -6 47.001c-6 23.333 -10 39.333 -12 48l-111 507h160z" />
    <glyph glyph-name="z" unicode="z" horiz-adv-x="389" 
d="M25 435v125h350v-116l-182 -319h182v-125h-361v111l182 324h-171z" />
    <glyph glyph-name="braceleft" unicode="{" horiz-adv-x="274" 
d="M66 54l-0.00390625 161.996c0 30.667 -5 53.667 -15 69c-12 18 -32 30.667 -60 38c26.667 4.66699 46.334 18 59.001 40c10.667 18.667 16 42.334 16 71.001v184c0 26 2.33301 47.5 7 64.5s14.834 31 30.501 42s32.667 18 51 21s44.833 4.5 79.5 4.5h49
c-29.333 -7.33301 -49.166 -20.333 -59.499 -39s-15.5 -43.667 -15.5 -75v-184c0 -38 -5 -65.667 -15 -83c-12.667 -21.333 -35 -35.666 -67 -42.999c32 -5.33301 54.333 -21.666 67 -48.999c10 -21.333 15 -50.666 15 -87.999v-172c0 -28.667 4.66699 -51 14 -67
c12 -20.667 32.333 -34.667 61 -42c-12.667 -0.666992 -25.5 -1 -38.5 -1h-29.5c-30 0 -54.5 2.16699 -73.5 6.5s-34.667 13 -47 26s-20.166 28.5 -23.499 46.5s-5 40.667 -5 68z" />
    <glyph glyph-name="bar" unicode="|" horiz-adv-x="250" 
d="M54 0v750h142v-750h-142z" />
    <glyph glyph-name="braceright" unicode="}" horiz-adv-x="274" 
d="M208 618l0.000976562 -183c0 -30 5 -53.667 15 -71c12.667 -21.333 32.667 -34 60 -38c-30 -4.66699 -50.667 -17 -62 -37c-8.66699 -16 -13 -40.333 -13 -73v-162c0 -26 -1.66699 -48.333 -5 -67s-11.5 -34.667 -24.5 -48s-31 -22.166 -54 -26.499
s-53.5 -6.5 -91.5 -6.5h-42c28.667 7.33301 48.334 20 59.001 38s16 42.667 16 74v171c0 39.333 4.33301 67.666 13 84.999c11.333 23.333 34.333 40 69 50c-32 8 -53.667 22 -65 42s-17 48.667 -17 86v185c0 31.333 -5.66699 56.333 -17 75s-30.666 30.667 -57.999 36
c15.333 0.666992 30.166 1 44.499 1h31.5c25.333 0 45.166 -1.5 59.499 -4.5s28.166 -9.16699 41.499 -18.5s23.333 -21.333 30 -36s10 -38.667 10 -72z" />
    <glyph glyph-name="asciitilde" unicode="~" 
d="M418 359l57.001 -73.001c-23.333 -40.667 -40.333 -67 -51 -79c-22.667 -25.333 -48.667 -38 -78 -38c-22 0 -56.333 11 -103 33s-74.334 33 -83.001 33c-18 0 -33.667 -9.33301 -47 -28c-3.33301 -4.66699 -13.333 -22.667 -30 -54l-57 74
c18 36.667 35.333 64.334 52 83.001c24.667 27.333 51.667 41 81 41c23.333 0 57.333 -11 102 -33s73 -33 85 -33c12.667 0 24 5 34 15c4 4 16.667 23.667 38 59z" />
    <glyph glyph-name="c128" horiz-adv-x="666" 
d="M448 268c0 10.667 -2.33301 19 -7 25c-7.33301 10 -19.666 15 -36.999 15c-24.667 0 -47.334 -6.66699 -68.001 -20v-288h-176v600h-138v150h456v-150h-142v-162c27.333 10.667 48.333 17.667 63 21c24.667 6 50.667 9 78 9c50 0 87 -16.333 111 -49s36 -79.667 36 -141
v-106c0 -61.333 -18.5 -108.333 -55.5 -141s-85.5 -49 -145.5 -49h-31v135h22c22.667 0 34 15.667 34 47v104z" />
    <glyph glyph-name="c128" unicode="&#x402;" horiz-adv-x="666" 
d="M448 268c0 10.667 -2.33301 19 -7 25c-7.33301 10 -19.666 15 -36.999 15c-24.667 0 -47.334 -6.66699 -68.001 -20v-288h-176v600h-138v150h456v-150h-142v-162c27.333 10.667 48.333 17.667 63 21c24.667 6 50.667 9 78 9c50 0 87 -16.333 111 -49s36 -79.667 36 -141
v-106c0 -61.333 -18.5 -108.333 -55.5 -141s-85.5 -49 -145.5 -49h-31v135h22c22.667 0 34 15.667 34 47v104z" />
    <glyph glyph-name="c129" horiz-adv-x="444" 
d="M428 750v-150h-211v-600h-176v750h387zM217 972h208l-171 -148h-137z" />
    <glyph glyph-name="c129" unicode="&#x403;" horiz-adv-x="444" 
d="M428 750v-150h-211v-600h-176v750h387zM217 972h208l-171 -148h-137z" />
    <glyph glyph-name="c141" horiz-adv-x="556" 
d="M220 0h-176v750h176v-300l132 300h180l-160 -331l170 -419h-186l-97 261l-39 -76v-185zM275 972h208l-171 -148h-137z" />
    <glyph glyph-name="c141" unicode="&#x40c;" horiz-adv-x="556" 
d="M220 0h-176v750h176v-300l132 300h180l-160 -331l170 -419h-186l-97 261l-39 -76v-185zM275 972h208l-171 -148h-137z" />
    <glyph glyph-name="c142" horiz-adv-x="666" 
d="M624 0h-176v268c0 10.667 -2.33301 19 -7 25c-7.33301 10 -19.666 15 -36.999 15c-24.667 0 -47.334 -6.66699 -68.001 -20v-288h-176v600h-138v150h456v-150h-142v-162c27.333 10.667 48.333 17.667 63 21c24.667 6 50.667 9 78 9c50 0 87 -16.333 111 -49
s36 -79.667 36 -141v-278z" />
    <glyph glyph-name="c142" unicode="&#x40b;" horiz-adv-x="666" 
d="M624 0h-176v268c0 10.667 -2.33301 19 -7 25c-7.33301 10 -19.666 15 -36.999 15c-24.667 0 -47.334 -6.66699 -68.001 -20v-288h-176v600h-138v150h456v-150h-142v-162c27.333 10.667 48.333 17.667 63 21c24.667 6 50.667 9 78 9c50 0 87 -16.333 111 -49
s36 -79.667 36 -141v-278z" />
    <glyph glyph-name="c143" horiz-adv-x="556" 
d="M198 0h-157v750h176v-600h122v600h176v-750h-156v-108h-161v108z" />
    <glyph glyph-name="c143" unicode="&#x40f;" horiz-adv-x="556" 
d="M198 0h-157v750h176v-600h122v600h176v-750h-156v-108h-161v108z" />
    <glyph glyph-name="c144" horiz-adv-x="518" 
d="M473 -14c0 -58.667 -7.99902 -100.666 -23.999 -125.999c-20.667 -32.667 -57 -49 -109 -49h-76v115h20c12 0 20 4.83301 24 14.5s6 21.834 6 36.501v261c0 17.333 -3 29.666 -9 36.999s-18 11 -36 11c-16 0 -27.667 -5.83301 -35 -17.5s-11 -25.5 -11 -41.5v-227h-159
v445h-52v115h52v190h159v-190h174v-115h-174v-89c18 21.333 37.167 36.666 57.5 45.999s42.166 14 65.499 14c38 0 68.667 -12 92 -36s35 -54.333 35 -91v-303z" />
    <glyph glyph-name="c144" unicode="&#x452;" horiz-adv-x="518" 
d="M473 -14c0 -58.667 -7.99902 -100.666 -23.999 -125.999c-20.667 -32.667 -57 -49 -109 -49h-76v115h20c12 0 20 4.83301 24 14.5s6 21.834 6 36.501v261c0 17.333 -3 29.666 -9 36.999s-18 11 -36 11c-16 0 -27.667 -5.83301 -35 -17.5s-11 -25.5 -11 -41.5v-227h-159
v445h-52v115h52v190h159v-190h174v-115h-174v-89c18 21.333 37.167 36.666 57.5 45.999s42.166 14 65.499 14c38 0 68.667 -12 92 -36s35 -54.333 35 -91v-303z" />
    <glyph glyph-name="c157" 
d="M205 0h-159v560h159v-187l111 187h174l-158 -225l165 -335h-177l-88 216l-27 -36v-180zM251 782h208l-171 -148h-137z" />
    <glyph glyph-name="c157" unicode="&#x45c;" 
d="M205 0h-159v560h159v-187l111 187h174l-158 -225l165 -335h-177l-88 216l-27 -36v-180zM251 782h208l-171 -148h-137z" />
    <glyph glyph-name="c158" horiz-adv-x="518" 
d="M223 445l0.000976562 -88.998c18 21.333 37.167 36.666 57.5 45.999s42.166 14 65.499 14c38 0 68.667 -12 92 -36s35 -54.333 35 -91v-289h-159v238c0 17.333 -3 29.666 -9 36.999s-18 11 -36 11c-16 0 -27.667 -5.83301 -35 -17.5s-11 -25.5 -11 -41.5v-227h-159v445
h-52v115h52v190h159v-190h174v-115h-174z" />
    <glyph glyph-name="c158" unicode="&#x45b;" horiz-adv-x="518" 
d="M223 445l0.000976562 -88.998c18 21.333 37.167 36.666 57.5 45.999s42.166 14 65.499 14c38 0 68.667 -12 92 -36s35 -54.333 35 -91v-289h-159v238c0 17.333 -3 29.666 -9 36.999s-18 11 -36 11c-16 0 -27.667 -5.83301 -35 -17.5s-11 -25.5 -11 -41.5v-227h-159v445
h-52v115h52v190h159v-190h174v-115h-174z" />
    <glyph glyph-name="nonbreakingspace" unicode="&#xa0;" 
 />
    <glyph glyph-name="exclamdown" unicode="&#xa1;" horiz-adv-x="556" 
d="M391 207c-19.333 -67.333 -35 -112.666 -47 -135.999c-30 -59.333 -83.667 -89 -161 -89c-22 0 -43 1.66699 -63 5v150c15.333 -3.33301 31.333 -5 48 -5c10.667 0 20.5 3.66699 29.5 11s15.5 16.666 19.5 27.999l14 36l-222 543h178l108 -323l76 323h176zM105 960
l79 -0.000976562c2.66699 -24 15.334 -41 38.001 -51c17.333 -7.33301 40 -11 68 -11s49 3.66699 63 11c17.333 9.33301 29.666 26.333 36.999 51h77c0 -49.333 -18.333 -87.666 -55 -114.999c-34 -25.333 -76.333 -38 -127 -38c-56 0 -99 11.333 -129 34
c-34 26 -51 65.667 -51 119z" />
    <glyph glyph-name="exclamdown" unicode="&#x40e;" horiz-adv-x="556" 
d="M391 207c-19.333 -67.333 -35 -112.666 -47 -135.999c-30 -59.333 -83.667 -89 -161 -89c-22 0 -43 1.66699 -63 5v150c15.333 -3.33301 31.333 -5 48 -5c10.667 0 20.5 3.66699 29.5 11s15.5 16.666 19.5 27.999l14 36l-222 543h178l108 -323l76 323h176zM105 960
l79 -0.000976562c2.66699 -24 15.334 -41 38.001 -51c17.333 -7.33301 40 -11 68 -11s49 3.66699 63 11c17.333 9.33301 29.666 26.333 36.999 51h77c0 -49.333 -18.333 -87.666 -55 -114.999c-34 -25.333 -76.333 -38 -127 -38c-56 0 -99 11.333 -129 34
c-34 26 -51 65.667 -51 119z" />
    <glyph glyph-name="cent" unicode="&#xa2;" horiz-adv-x="444" 
d="M166 560l59 -362.001l52 362h156l-101 -479c-16 -76 -26.333 -121.667 -31 -137c-14 -45.333 -32.667 -77.666 -56 -96.999c-29.333 -24 -71.333 -36 -126 -36c-10 0 -18.5 0.333008 -25.5 1s-19.5 2 -37.5 4v118l31 -4c10.667 -1.33301 21.5 0.5 32.5 5.5
s16.5 12.5 16.5 22.5c0 14 -1 27.667 -3 41s-5.66699 31.333 -11 54l-116 507h160zM42 786.999l79 -0.000976562c2.66699 -24 15.334 -41 38.001 -51c17.333 -7.33301 40 -11 68 -11s49 3.66699 63 11c17.333 9.33301 29.666 26.333 36.999 51h77
c0 -49.333 -18.333 -87.666 -55 -114.999c-34 -25.333 -76.333 -38 -127 -38c-56 0 -99 11.333 -129 34c-34 26 -51 65.667 -51 119z" />
    <glyph glyph-name="cent" unicode="&#x45e;" horiz-adv-x="444" 
d="M166 560l59 -362.001l52 362h156l-101 -479c-16 -76 -26.333 -121.667 -31 -137c-14 -45.333 -32.667 -77.666 -56 -96.999c-29.333 -24 -71.333 -36 -126 -36c-10 0 -18.5 0.333008 -25.5 1s-19.5 2 -37.5 4v118l31 -4c10.667 -1.33301 21.5 0.5 32.5 5.5
s16.5 12.5 16.5 22.5c0 14 -1 27.667 -3 41s-5.66699 31.333 -11 54l-116 507h160zM42 786.999l79 -0.000976562c2.66699 -24 15.334 -41 38.001 -51c17.333 -7.33301 40 -11 68 -11s49 3.66699 63 11c17.333 9.33301 29.666 26.333 36.999 51h77
c0 -49.333 -18.333 -87.666 -55 -114.999c-34 -25.333 -76.333 -38 -127 -38c-56 0 -99 11.333 -129 34c-34 26 -51 65.667 -51 119z" />
    <glyph glyph-name="sterling" unicode="&#xa3;" horiz-adv-x="444" 
d="M7 250l141 0.000976562v-95c0 -25.333 12 -38 36 -38c13.333 0 22.333 1.66699 27 5s7 10.666 7 21.999l1 606h176v-522v-20c0 -36 -0.666992 -59.667 -2 -71c-3.33301 -26 -10.333 -49.333 -21 -70c-17.333 -32 -42.333 -54.667 -75 -68
c-27.333 -11.333 -62 -17 -104 -17c-44.667 0 -83 10.333 -115 31s-53 51.667 -63 93c-3.33301 12 -5.5 25.333 -6.5 40s-1.5 26.667 -1.5 36v25v43z" />
    <glyph glyph-name="sterling" unicode="&#x408;" horiz-adv-x="444" 
d="M7 250l141 0.000976562v-95c0 -25.333 12 -38 36 -38c13.333 0 22.333 1.66699 27 5s7 10.666 7 21.999l1 606h176v-522v-20c0 -36 -0.666992 -59.667 -2 -71c-3.33301 -26 -10.333 -49.333 -21 -70c-17.333 -32 -42.333 -54.667 -75 -68
c-27.333 -11.333 -62 -17 -104 -17c-44.667 0 -83 10.333 -115 31s-53 51.667 -63 93c-3.33301 12 -5.5 25.333 -6.5 40s-1.5 26.667 -1.5 36v25v43z" />
    <glyph glyph-name="currency" unicode="&#xa4;" 
d="M0 137l43.998 44.001c-12 21.333 -21.167 42.166 -27.5 62.499s-9.5 42.166 -9.5 65.499c0 46.667 12.333 90.334 37 131.001l-44 43l79 80l44 -44c20 12 40.833 21.333 62.5 28s43.834 10 66.501 10c48.667 0 93.334 -12.667 134.001 -38l44 44l79 -80l-44 -43
c24 -42 36 -85.333 36 -130c0 -48.667 -12 -91.667 -36 -129l44 -44l-79 -79l-44 44c-19.333 -12 -40.333 -21.5 -63 -28.5s-44.667 -10.5 -66 -10.5c-49.333 0 -94 13 -134 39l-44 -44zM253.998 187.001c34.667 0 63.834 12.167 87.501 36.5s35.5 53.166 35.5 86.499
s-11.833 62.166 -35.5 86.499s-52.834 36.5 -87.501 36.5s-63.834 -12.167 -87.501 -36.5s-35.5 -53.166 -35.5 -86.499s11.833 -62.166 35.5 -86.499s52.834 -36.5 87.501 -36.5z" />
    <glyph glyph-name="yen" unicode="&#xa5;" horiz-adv-x="444" 
d="M267 750v108h161v-258h-211v-600h-176v750h226z" />
    <glyph glyph-name="yen" unicode="&#x490;" horiz-adv-x="444" 
d="M267 750v108h161v-258h-211v-600h-176v750h226z" />
    <glyph glyph-name="brokenbar" unicode="&#xa6;" horiz-adv-x="250" 
d="M54 0v300h142v-300h-142zM54 750h142v-300h-142v300z" />
    <glyph glyph-name="section" unicode="&#xa7;" 
d="M0 137l43.998 44.001c-12 21.333 -21.167 42.166 -27.5 62.499s-9.5 42.166 -9.5 65.499c0 46.667 12.333 90.334 37 131.001l-44 43l79 80l44 -44c20 12 40.833 21.333 62.5 28s43.834 10 66.501 10c48.667 0 93.334 -12.667 134.001 -38l44 44l79 -80l-44 -43
c24 -42 36 -85.333 36 -130c0 -48.667 -12 -91.667 -36 -129l44 -44l-79 -79l-44 44c-19.333 -12 -40.333 -21.5 -63 -28.5s-44.667 -10.5 -66 -10.5c-49.333 0 -94 13 -134 39l-44 -44zM253.998 187.001c34.667 0 63.834 12.167 87.501 36.5s35.5 53.166 35.5 86.499
s-11.833 62.166 -35.5 86.499s-52.834 36.5 -87.501 36.5s-63.834 -12.167 -87.501 -36.5s-35.5 -53.166 -35.5 -86.499s11.833 -62.166 35.5 -86.499s52.834 -36.5 87.501 -36.5z" />
    <glyph glyph-name="dieresis" unicode="&#xa8;" 
d="M461 0h-415v750h403v-150h-227v-138h220v-150h-220v-162h239v-150zM280 830v130h158v-130h-158zM64 960h158v-130h-158v130z" />
    <glyph glyph-name="dieresis" unicode="&#x401;" 
d="M461 0h-415v750h403v-150h-227v-138h220v-150h-220v-162h239v-150zM280 830v130h158v-130h-158zM64 960h158v-130h-158v130z" />
    <glyph glyph-name="copyright" unicode="&#xa9;" horiz-adv-x="830" 
d="M526 306l89 -0.000976562c-5.33301 -46.667 -25.333 -83.834 -60 -111.501s-76 -41.5 -124 -41.5c-64.667 0 -117 21.5 -157 64.5s-60 97.167 -60 162.5c0 66.667 19.333 121 58 163s91 63 157 63c48 0 88.833 -13.167 122.5 -39.5s54.834 -62.833 63.501 -109.5h-89
c-4.66699 24 -15.834 42.167 -33.501 54.5s-39.5 18.5 -65.5 18.5c-40 0 -70 -13.833 -90 -41.5s-30 -62.5 -30 -104.5c0 -41.333 9.33301 -75.666 28 -102.999c21.333 -31.333 51.333 -47 90 -47c26 0 49.333 6.33301 70 19s31 30.334 31 53.001zM415 -18.001
c-128 0 -228 42.001 -300 126.001c-62.667 73.333 -94 162.666 -94 267.999c0 103.333 30.667 191.333 92 264c72 85.333 172.667 128 302 128c123.333 0 221.333 -39.667 294 -119c66.667 -72.667 100 -163.667 100 -273c0 -112 -35.667 -205 -107 -279
c-74 -76.667 -169.667 -115 -287 -115zM413 672c-88 0 -158.999 -27.333 -212.999 -82s-81 -126 -81 -214c0 -89.333 26.667 -161.333 80 -216s124.666 -82 213.999 -82c88 0 159.667 28 215 84s83 128.667 83 218c0 87.333 -27.5 157.833 -82.5 211.5
s-126.833 80.5 -215.5 80.5z" />
    <glyph glyph-name="ordfeminine" unicode="&#xaa;" horiz-adv-x="556" 
d="M518 201c0 -68 -19.665 -120.666 -58.998 -157.999c-43.333 -40.667 -108.333 -61 -195 -61c-78.667 0 -135.834 20.167 -171.501 60.5s-53.5 99.833 -53.5 178.5v308c0 81.333 19.167 141.5 57.5 180.5s97.833 58.5 178.5 58.5c77.333 0 136.666 -17.5 177.999 -52.5
s62 -89.833 62 -164.5v-22h-176v7c0 64.667 -18.667 97 -56 97c-26 0 -43.833 -6.33301 -53.5 -19s-14.5 -32.334 -14.5 -59.001v-93h149v-150h-150l1 -128c0 -22.667 4.66699 -39.5 14 -50.5s25.333 -16.5 48 -16.5c26.667 0 45 12 55 36c6.66699 16 10 40 10 72v27h176
v-51z" />
    <glyph glyph-name="ordfeminine" unicode="&#x404;" horiz-adv-x="556" 
d="M518 201c0 -68 -19.665 -120.666 -58.998 -157.999c-43.333 -40.667 -108.333 -61 -195 -61c-78.667 0 -135.834 20.167 -171.501 60.5s-53.5 99.833 -53.5 178.5v308c0 81.333 19.167 141.5 57.5 180.5s97.833 58.5 178.5 58.5c77.333 0 136.666 -17.5 177.999 -52.5
s62 -89.833 62 -164.5v-22h-176v7c0 64.667 -18.667 97 -56 97c-26 0 -43.833 -6.33301 -53.5 -19s-14.5 -32.334 -14.5 -59.001v-93h149v-150h-150l1 -128c0 -22.667 4.66699 -39.5 14 -50.5s25.333 -16.5 48 -16.5c26.667 0 45 12 55 36c6.66699 16 10 40 10 72v27h176
v-51z" />
    <glyph glyph-name="guillemotleft" unicode="&#xab;" 
d="M457 123l-180 116v146l180 120v-131l-102 -63l102 -58v-130zM217 123l-180 116v146l180 120v-131l-101 -63l101 -58v-130z" />
    <glyph glyph-name="logicalnot" unicode="&#xac;" 
d="M360 115v175h-334v115h449v-290h-115z" />
    <glyph glyph-name="minus" unicode="&#xad;" horiz-adv-x="333" 
d="M355 663h-376v90h376v-90z" />
    <glyph glyph-name="registered" unicode="&#xae;" horiz-adv-x="830" 
d="M415 -18c-128 0 -228 42.001 -300 126.001c-62.667 73.333 -94 162.666 -94 267.999c0 103.333 30.667 191.333 92 264c72 85.333 172.667 128 302 128c123.333 0 221.333 -39.667 294 -119c66.667 -72.667 100 -163.667 100 -273c0 -112 -35.667 -205 -107 -279
c-74 -76.667 -169.667 -115 -287 -115zM413 672.001c-88 0 -158.999 -27.333 -212.999 -82s-81 -126 -81 -214c0 -89.333 26.667 -161.333 80 -216s124.666 -82 213.999 -82c88 0 159.667 28 215 84s83 128.667 83 218c0 87.333 -27.5 157.833 -82.5 211.5
s-126.833 80.5 -215.5 80.5zM326.001 331.001v-170h-93v425h238c46.667 0 82 -10.167 106 -30.5s36 -53.833 36 -100.5c0 -76 -38.667 -114 -116 -114l103 -180h-107l-94 170h-73zM326.001 404.001h124c26 0 43.667 3.33301 53 10c12 8.66699 18 26 18 52
c0 20 -10 33.667 -30 41c-13.333 4.66699 -34 7 -62 7h-103v-110z" />
    <glyph glyph-name="macron" unicode="&#xaf;" horiz-adv-x="278" 
d="M227 0h-176v750h176v-750zM169 830v130h158v-130h-158zM-47 960h158v-130h-158v130z" />
    <glyph glyph-name="macron" unicode="&#x407;" horiz-adv-x="278" 
d="M227 0h-176v750h176v-750zM169 830v130h158v-130h-158zM-47 960h158v-130h-158v130z" />
    <glyph glyph-name="degree" unicode="&#xb0;" horiz-adv-x="400" 
d="M350 600c0 -41.333 -14.667 -76.666 -44 -105.999s-64.666 -44 -105.999 -44s-76.666 14.667 -105.999 44s-44 64.666 -44 105.999s14.667 76.666 44 105.999s64.666 44 105.999 44s76.666 -14.667 105.999 -44s44 -64.666 44 -105.999zM244 600
c0 12 -4.33301 22.333 -13 31s-19 13 -31 13s-22.333 -4.33301 -31 -13s-13 -19 -13 -31s4.33301 -22.333 13 -31s19 -13 31 -13s22.333 4.33301 31 13s13 19 13 31z" />
    <glyph glyph-name="plusminus" unicode="&#xb1;" 
d="M193 392v118h115v-118h167v-115h-167v-125h-115v125h-167v115h167zM26 -12v115h449v-115h-449z" />
    <glyph glyph-name="twosuperior" unicode="&#xb2;" horiz-adv-x="278" 
d="M227 0h-176v750h176v-750z" />
    <glyph glyph-name="twosuperior" unicode="&#x406;" horiz-adv-x="278" 
d="M227 0h-176v750h176v-750z" />
    <glyph glyph-name="threesuperior" unicode="&#xb3;" horiz-adv-x="278" 
d="M219 0h-159v560h159v-560zM219 615h-159v135h159v-135z" />
    <glyph glyph-name="threesuperior" unicode="&#x456;" horiz-adv-x="278" 
d="M219 0h-159v560h159v-560zM219 615h-159v135h159v-135z" />
    <glyph glyph-name="acute" unicode="&#xb4;" horiz-adv-x="407" 
d="M241 560v108h146v-232h-182v-436h-159v560h195z" />
    <glyph glyph-name="acute" unicode="&#x491;" horiz-adv-x="407" 
d="M241 560v108h146v-232h-182v-436h-159v560h195z" />
    <glyph glyph-name="mu" unicode="&#xb5;" 
d="M449 0h-148v69c-8.66699 -21.333 -21.667 -39.5 -39 -54.5s-36.333 -22.5 -57 -22.5v-181h-159v749h159v-401c0 -14.667 3 -26.167 9 -34.5s16 -12.5 30 -12.5c30.667 0 46 15.667 46 47v401h159v-560z" />
    <glyph glyph-name="paragraph" unicode="&#xb6;" horiz-adv-x="574" 
d="M566 750v-80.999h-62v-785h-147v724h-54v-724h-147v534c-50 0 -87 14.167 -111 42.5s-36 68.166 -36 119.499c0 64 16.667 109 50 135c30 23.333 78.667 35 146 35h361z" />
    <glyph glyph-name="periodcentered" unicode="&#xb7;" horiz-adv-x="333" 
d="M251 164h-169v171h169v-171z" />
    <glyph glyph-name="periodcentered" unicode="&#x2219;" horiz-adv-x="333" 
d="M251 164h-169v171h169v-171z" />
    <glyph glyph-name="cedilla" unicode="&#xb8;" 
d="M197 359l110 0.000976562v55c0 14 -3.66699 26 -11 36c-10 14 -24.333 21 -43 21c-20.667 0 -35.167 -6.83301 -43.5 -20.5s-12.5 -31.834 -12.5 -54.501v-37zM466 254.001h-269.001v-98c0 -17.333 4 -31.5 12 -42.5s20.333 -16.5 37 -16.5c26 0 42.667 10.333 50 31
c4 11.333 6 33.333 6 66h158c0 -141.333 -69.333 -212 -208 -212c-62.667 0 -112.667 13 -150 39c-42.667 30 -64 75 -64 135v228c0 68 20.333 118 61 150c35.333 28 86.333 42 153 42c62.667 0 112.334 -11.667 149.001 -35c43.333 -28 65 -70.333 65 -127v-160z
M279.999 640.001v130h158v-130h-158zM63.999 770.001h158v-130h-158v130z" />
    <glyph glyph-name="cedilla" unicode="&#x451;" 
d="M197 359l110 0.000976562v55c0 14 -3.66699 26 -11 36c-10 14 -24.333 21 -43 21c-20.667 0 -35.167 -6.83301 -43.5 -20.5s-12.5 -31.834 -12.5 -54.501v-37zM466 254.001h-269.001v-98c0 -17.333 4 -31.5 12 -42.5s20.333 -16.5 37 -16.5c26 0 42.667 10.333 50 31
c4 11.333 6 33.333 6 66h158c0 -141.333 -69.333 -212 -208 -212c-62.667 0 -112.667 13 -150 39c-42.667 30 -64 75 -64 135v228c0 68 20.333 118 61 150c35.333 28 86.333 42 153 42c62.667 0 112.334 -11.667 149.001 -35c43.333 -28 65 -70.333 65 -127v-160z
M279.999 640.001v130h158v-130h-158zM63.999 770.001h158v-130h-158v130z" />
    <glyph glyph-name="onesuperior" unicode="&#xb9;" horiz-adv-x="870" 
d="M333 0l-137 420l-2 -2l16 -418h-167v750h181l136 -419l-14 419h167v-750h-180zM571 516v137c0 41.333 11.667 70.833 35 88.5s56.666 26.5 99.999 26.5c90 0 135 -38.333 135 -115v-137c0 -36 -12.167 -62.333 -36.5 -79s-57.166 -25 -98.499 -25
c-40 0 -71.667 7.66699 -95 23c-26.667 18 -40 45 -40 81zM674 660v-150c2 -19.333 12.667 -29 32 -29s30 9.66699 32 29v150c0 12 -2.5 21.5 -7.5 28.5s-13.167 10.5 -24.5 10.5s-19.5 -3.5 -24.5 -10.5s-7.5 -16.5 -7.5 -28.5zM571 277v80h270v-80h-270z" />
    <glyph glyph-name="onesuperior" unicode="&#x2116;" horiz-adv-x="870" 
d="M333 0l-137 420l-2 -2l16 -418h-167v750h181l136 -419l-14 419h167v-750h-180zM571 516v137c0 41.333 11.667 70.833 35 88.5s56.666 26.5 99.999 26.5c90 0 135 -38.333 135 -115v-137c0 -36 -12.167 -62.333 -36.5 -79s-57.166 -25 -98.499 -25
c-40 0 -71.667 7.66699 -95 23c-26.667 18 -40 45 -40 81zM674 660v-150c2 -19.333 12.667 -29 32 -29s30 9.66699 32 29v150c0 12 -2.5 21.5 -7.5 28.5s-13.167 10.5 -24.5 10.5s-19.5 -3.5 -24.5 -10.5s-7.5 -16.5 -7.5 -28.5zM571 277v80h270v-80h-270z" />
    <glyph glyph-name="ordmasculine" unicode="&#xba;" 
d="M463 188c0 -74 -18.998 -127.667 -56.998 -161c-34.667 -30 -88 -45 -160 -45c-60.667 0 -107.667 13 -141 39c-37.333 29.333 -56 74.333 -56 135v228c0 69.333 17.333 119.333 52 150c31.333 28 79.666 42 144.999 42c140.667 0 211 -60.333 211 -181h-155l-3 31
c-7.33301 23.333 -21.666 35 -42.999 35c-18.667 0 -31.334 -6 -38.001 -18s-10 -28.667 -10 -50v-45h116v-118h-116v-68c0 -20 3.66699 -35.833 11 -47.5s20.666 -17.5 39.999 -17.5s33 9.66699 41 29c6 15.333 9 36 9 62h154z" />
    <glyph glyph-name="ordmasculine" unicode="&#x454;" 
d="M463 188c0 -74 -18.998 -127.667 -56.998 -161c-34.667 -30 -88 -45 -160 -45c-60.667 0 -107.667 13 -141 39c-37.333 29.333 -56 74.333 -56 135v228c0 69.333 17.333 119.333 52 150c31.333 28 79.666 42 144.999 42c140.667 0 211 -60.333 211 -181h-155l-3 31
c-7.33301 23.333 -21.666 35 -42.999 35c-18.667 0 -31.334 -6 -38.001 -18s-10 -28.667 -10 -50v-45h116v-118h-116v-68c0 -20 3.66699 -35.833 11 -47.5s20.666 -17.5 39.999 -17.5s33 9.66699 41 29c6 15.333 9 36 9 62h154z" />
    <glyph glyph-name="guillemotright" unicode="&#xbb;" 
d="M463 239l-180 -116v130l101 58l-101 63v131l180 -120v-146zM223 239l-180 -116v130l102 58l-102 63v131l180 -120v-146z" />
    <glyph glyph-name="onequarter" unicode="&#xbc;" horiz-adv-x="278" 
d="M14 -189v114.999h20c12 0 20 4.83301 24 14.5s6 21.834 6 36.501v583h159v-574c0 -58.667 -8 -100.667 -24 -126c-20.667 -32.667 -57 -49 -109 -49h-76zM223 614.999h-159v135h159v-135z" />
    <glyph glyph-name="onequarter" unicode="&#x458;" horiz-adv-x="278" 
d="M14 -189v114.999h20c12 0 20 4.83301 24 14.5s6 21.834 6 36.501v583h159v-574c0 -58.667 -8 -100.667 -24 -126c-20.667 -32.667 -57 -49 -109 -49h-76zM223 614.999h-159v135h159v-135z" />
    <glyph glyph-name="onehalf" unicode="&#xbd;" 
d="M16 251l163.002 0.00292969v-53c0 -24.667 5.16699 -44.334 15.5 -59.001s28.5 -22 54.5 -22c19.333 0 34 7.16699 44 21.5s15 32.166 15 53.499c0 27.333 -10.333 50.666 -31 69.999c-8.66699 8 -31 23 -67 45c-31.333 18 -56 33.333 -74 46
c-24 16.667 -43.833 34.334 -59.5 53.001s-28 40.334 -37 65.001s-13.5 52.667 -13.5 84c0 69.333 19.5 122.166 58.5 158.499s93.167 54.5 162.5 54.5c74 0 130.333 -22.667 169 -68c36 -42.667 54 -101 54 -175h-162c0 32.667 -2.33301 56 -7 70
c-8.66699 25.333 -25.667 38 -51 38c-40.667 0 -61 -16 -61 -48c-0.666992 -6.66699 -1 -11.334 -1 -14.001c0 -16.667 4.66699 -31.167 14 -43.5s22.666 -24.5 39.999 -36.5l91 -54c31.333 -18.667 55.666 -36 72.999 -52c22 -20.667 38.333 -44.5 49 -71.5
s16 -62.833 16 -107.5c0 -72 -19.333 -127.333 -58 -166s-94.667 -58 -168 -58c-76 0 -134.333 19 -175 57c-36 34 -54 78 -54 132v80z" />
    <glyph glyph-name="onehalf" unicode="&#x405;" 
d="M16 251l163.002 0.00292969v-53c0 -24.667 5.16699 -44.334 15.5 -59.001s28.5 -22 54.5 -22c19.333 0 34 7.16699 44 21.5s15 32.166 15 53.499c0 27.333 -10.333 50.666 -31 69.999c-8.66699 8 -31 23 -67 45c-31.333 18 -56 33.333 -74 46
c-24 16.667 -43.833 34.334 -59.5 53.001s-28 40.334 -37 65.001s-13.5 52.667 -13.5 84c0 69.333 19.5 122.166 58.5 158.499s93.167 54.5 162.5 54.5c74 0 130.333 -22.667 169 -68c36 -42.667 54 -101 54 -175h-162c0 32.667 -2.33301 56 -7 70
c-8.66699 25.333 -25.667 38 -51 38c-40.667 0 -61 -16 -61 -48c-0.666992 -6.66699 -1 -11.334 -1 -14.001c0 -16.667 4.66699 -31.167 14 -43.5s22.666 -24.5 39.999 -36.5l91 -54c31.333 -18.667 55.666 -36 72.999 -52c22 -20.667 38.333 -44.5 49 -71.5
s16 -62.833 16 -107.5c0 -72 -19.333 -127.333 -58 -166s-94.667 -58 -168 -58c-76 0 -134.333 19 -175 57c-36 34 -54 78 -54 132v80z" />
    <glyph glyph-name="threequarters" unicode="&#xbe;" horiz-adv-x="444" 
d="M423 394l-149 -0.00195312c-3.33301 30.667 -6 48.334 -8 53.001c-6.66699 16 -21.667 24 -45 24c-16 0 -28.833 -3.83301 -38.5 -11.5s-14.5 -19.5 -14.5 -35.5s7.33301 -29.667 22 -41c6.66699 -4.66699 15.667 -10 27 -16c86 -39.333 134.667 -63 146 -71
c45.333 -32.667 68 -78 68 -136c0 -59.333 -20.667 -104.666 -62 -135.999c-37.333 -28 -87.333 -42 -150 -42c-66 0 -116.333 14.333 -151 43c-38 32 -57 80.667 -57 146h152c0 -24.667 3.33301 -43.667 10 -57c9.33301 -18 25 -27 47 -27c38 0 57 17.667 57 53
c0 18 -7 32.333 -21 43c-7.33301 4 -33.666 16 -78.999 36c-60 26.667 -101.333 53 -124 79c-26.667 30.667 -40 65.667 -40 105c0 57.333 20.667 101.333 62 132c36.667 27.333 85 41 145 41c61.333 0 109.666 -14.667 144.999 -44c38.667 -32 58 -78 58 -138z" />
    <glyph glyph-name="threequarters" unicode="&#x455;" horiz-adv-x="444" 
d="M423 394l-149 -0.00195312c-3.33301 30.667 -6 48.334 -8 53.001c-6.66699 16 -21.667 24 -45 24c-16 0 -28.833 -3.83301 -38.5 -11.5s-14.5 -19.5 -14.5 -35.5s7.33301 -29.667 22 -41c6.66699 -4.66699 15.667 -10 27 -16c86 -39.333 134.667 -63 146 -71
c45.333 -32.667 68 -78 68 -136c0 -59.333 -20.667 -104.666 -62 -135.999c-37.333 -28 -87.333 -42 -150 -42c-66 0 -116.333 14.333 -151 43c-38 32 -57 80.667 -57 146h152c0 -24.667 3.33301 -43.667 10 -57c9.33301 -18 25 -27 47 -27c38 0 57 17.667 57 53
c0 18 -7 32.333 -21 43c-7.33301 4 -33.666 16 -78.999 36c-60 26.667 -101.333 53 -124 79c-26.667 30.667 -40 65.667 -40 105c0 57.333 20.667 101.333 62 132c36.667 27.333 85 41 145 41c61.333 0 109.666 -14.667 144.999 -44c38.667 -32 58 -78 58 -138z" />
    <glyph glyph-name="questiondown" unicode="&#xbf;" horiz-adv-x="278" 
d="M219 0h-159v560h159v-560zM169 640v130h158v-130h-158zM-47 770h158v-130h-158v130z" />
    <glyph glyph-name="questiondown" unicode="&#x457;" horiz-adv-x="278" 
d="M219 0h-159v560h159v-560zM169 640v130h158v-130h-158zM-47 770h158v-130h-158v130z" />
    <glyph glyph-name="Agrave" unicode="&#xc0;" horiz-adv-x="556" 
d="M186 0h-177l164 750h212l163 -750h-178l-25 146h-138zM328 278l-49 336l-53 -336h102z" />
    <glyph glyph-name="Agrave" unicode="&#x410;" horiz-adv-x="556" 
d="M186 0h-177l164 750h212l163 -750h-178l-25 146h-138zM328 278l-49 336l-53 -336h102z" />
    <glyph glyph-name="Aacute" unicode="&#xc1;" horiz-adv-x="556" 
d="M220 135h26.001c30.667 0 53.667 2.66699 69 8c13.333 6 22.666 18.667 27.999 38c3.33301 12 5 28.333 5 49c0 15.333 -1.5 29.5 -4.5 42.5s-8.83301 24.167 -17.5 33.5c-8.66699 6.66699 -19.5 11.167 -32.5 13.5s-27.5 3.5 -43.5 3.5h-30v-188zM473.001 750
l0.000976562 -150h-253v-142h57c34.667 0 62.667 -1.33301 84 -4s42.666 -9.33398 63.999 -20.001c36 -16.667 62.333 -46 79 -88c13.333 -34 20 -74.333 20 -121c0 -34.667 -3.33301 -65.167 -10 -91.5s-19.667 -50.166 -39 -71.499c-22 -24.667 -55.333 -42 -100 -52
c-30.667 -6.66699 -69 -10 -115 -10h-216v750h429z" />
    <glyph glyph-name="Aacute" unicode="&#x411;" horiz-adv-x="556" 
d="M220 135h26.001c30.667 0 53.667 2.66699 69 8c13.333 6 22.666 18.667 27.999 38c3.33301 12 5 28.333 5 49c0 15.333 -1.5 29.5 -4.5 42.5s-8.83301 24.167 -17.5 33.5c-8.66699 6.66699 -19.5 11.167 -32.5 13.5s-27.5 3.5 -43.5 3.5h-30v-188zM473.001 750
l0.000976562 -150h-253v-142h57c34.667 0 62.667 -1.33301 84 -4s42.666 -9.33398 63.999 -20.001c36 -16.667 62.333 -46 79 -88c13.333 -34 20 -74.333 20 -121c0 -34.667 -3.33301 -65.167 -10 -91.5s-19.667 -50.166 -39 -71.499c-22 -24.667 -55.333 -42 -100 -52
c-30.667 -6.66699 -69 -10 -115 -10h-216v750h429z" />
    <glyph glyph-name="Acircumflex" unicode="&#xc2;" horiz-adv-x="556" 
d="M220 320l-0.000976562 -184.998c43.333 0 69.333 1 78 3c31.333 7.33301 47 38.666 47 93.999c0 39.333 -11.333 64.666 -34 75.999c-15.333 8 -45.666 12 -90.999 12zM219.999 615.002l0.000976562 -160c44 0 72.333 3.66699 85 11c18.667 11.333 28 37.333 28 78
c0 32.667 -11 53.667 -33 63c-12.667 5.33301 -39.334 8 -80.001 8zM292 0.00195312h-248v750h228c73.333 0 129.333 -13.333 168 -40c46 -32 69 -83.333 69 -154c0 -35.333 -6.66699 -66.5 -20 -93.5s-35 -48.5 -65 -64.5c38.667 -23.333 64.5 -47.333 77.5 -72
s19.5 -61 19.5 -109c0 -73.333 -19.833 -127.833 -59.5 -163.5s-96.167 -53.5 -169.5 -53.5z" />
    <glyph glyph-name="Acircumflex" unicode="&#x412;" horiz-adv-x="556" 
d="M220 320l-0.000976562 -184.998c43.333 0 69.333 1 78 3c31.333 7.33301 47 38.666 47 93.999c0 39.333 -11.333 64.666 -34 75.999c-15.333 8 -45.666 12 -90.999 12zM219.999 615.002l0.000976562 -160c44 0 72.333 3.66699 85 11c18.667 11.333 28 37.333 28 78
c0 32.667 -11 53.667 -33 63c-12.667 5.33301 -39.334 8 -80.001 8zM292 0.00195312h-248v750h228c73.333 0 129.333 -13.333 168 -40c46 -32 69 -83.333 69 -154c0 -35.333 -6.66699 -66.5 -20 -93.5s-35 -48.5 -65 -64.5c38.667 -23.333 64.5 -47.333 77.5 -72
s19.5 -61 19.5 -109c0 -73.333 -19.833 -127.833 -59.5 -163.5s-96.167 -53.5 -169.5 -53.5z" />
    <glyph glyph-name="Atilde" unicode="&#xc3;" horiz-adv-x="444" 
d="M428 750v-150h-211v-600h-176v750h387z" />
    <glyph glyph-name="Atilde" unicode="&#x413;" horiz-adv-x="444" 
d="M428 750v-150h-211v-600h-176v750h387z" />
    <glyph glyph-name="Adieresis" unicode="&#xc4;" horiz-adv-x="556" 
d="M0 150c45.333 0 71.667 26.667 79 80c3.33301 24 5 67.667 5 131v389h431v-600h41v-258h-161v108h-234v-108h-161v258zM339.001 150v450.001h-94v-239c0 -54 -1.33301 -91.667 -4 -113c-4.66699 -38.667 -15.667 -71.334 -33 -98.001h131z" />
    <glyph glyph-name="Adieresis" unicode="&#x414;" horiz-adv-x="556" 
d="M0 150c45.333 0 71.667 26.667 79 80c3.33301 24 5 67.667 5 131v389h431v-600h41v-258h-161v108h-234v-108h-161v258zM339.001 150v450.001h-94v-239c0 -54 -1.33301 -91.667 -4 -113c-4.66699 -38.667 -15.667 -71.334 -33 -98.001h131z" />
    <glyph glyph-name="Aring" unicode="&#xc5;" 
d="M461 0h-415v750h403v-150h-227v-138h220v-150h-220v-162h239v-150z" />
    <glyph glyph-name="Aring" unicode="&#x415;" 
d="M461 0h-415v750h403v-150h-227v-138h220v-150h-220v-162h239v-150z" />
    <glyph glyph-name="AE" unicode="&#xc6;" horiz-adv-x="851" 
d="M512 750v-300l132 300h180l-160 -331l170 -419h-186l-97 261l-39 -76v-185h-176v185l-39 76l-97 -261h-186l170 419l-160 331h180l130 -300l2 300h176z" />
    <glyph glyph-name="AE" unicode="&#x416;" horiz-adv-x="851" 
d="M512 750v-300l132 300h180l-160 -331l170 -419h-186l-97 261l-39 -76v-185h-176v185l-39 76l-97 -261h-186l170 419l-160 331h180l130 -300l2 300h176z" />
    <glyph glyph-name="Ccedilla" unicode="&#xc7;" horiz-adv-x="556" 
d="M196 319l-0.00195312 135.003h14c26 0 45.667 1.5 59 4.5s24.333 7.83301 33 14.5c11.333 7.33301 19.833 19.166 25.5 35.499s8.5 32.166 8.5 47.499c0 24.667 -4.33301 43.667 -13 57s-24.667 20 -48 20c-26 0 -43.333 -12.333 -52 -37
c-4.66699 -13.333 -7 -35.666 -7 -66.999h-173l1 54c0 56 22 100.833 66 134.5s99.667 50.5 167 50.5c70 0 124.667 -15.667 164 -47c42.667 -34 64 -84.333 64 -151c0 -42 -8 -75.833 -24 -101.5s-44.667 -48.834 -86 -69.501c44.667 -11.333 77.334 -36 98.001 -74
c17.333 -31.333 26 -70.333 26 -117c0 -76 -20.667 -132.667 -62 -170s-100.666 -56 -177.999 -56c-72 0 -129.667 18.667 -173 56s-65 89.666 -65 156.999l-1 57h176v-31c0 -41.333 5.5 -69 16.5 -83s27.167 -21 48.5 -21c24.667 0 42 10 52 30c7.33301 14.667 11 36 11 64
c0 20.667 -2.33301 38 -7 52c-6.66699 18.667 -17.667 32.667 -33 42c-10 6 -21 9.83301 -33 11.5s-27.333 2.5 -46 2.5h-29z" />
    <glyph glyph-name="Ccedilla" unicode="&#x417;" horiz-adv-x="556" 
d="M196 319l-0.00195312 135.003h14c26 0 45.667 1.5 59 4.5s24.333 7.83301 33 14.5c11.333 7.33301 19.833 19.166 25.5 35.499s8.5 32.166 8.5 47.499c0 24.667 -4.33301 43.667 -13 57s-24.667 20 -48 20c-26 0 -43.333 -12.333 -52 -37
c-4.66699 -13.333 -7 -35.666 -7 -66.999h-173l1 54c0 56 22 100.833 66 134.5s99.667 50.5 167 50.5c70 0 124.667 -15.667 164 -47c42.667 -34 64 -84.333 64 -151c0 -42 -8 -75.833 -24 -101.5s-44.667 -48.834 -86 -69.501c44.667 -11.333 77.334 -36 98.001 -74
c17.333 -31.333 26 -70.333 26 -117c0 -76 -20.667 -132.667 -62 -170s-100.666 -56 -177.999 -56c-72 0 -129.667 18.667 -173 56s-65 89.666 -65 156.999l-1 57h176v-31c0 -41.333 5.5 -69 16.5 -83s27.167 -21 48.5 -21c24.667 0 42 10 52 30c7.33301 14.667 11 36 11 64
c0 20.667 -2.33301 38 -7 52c-6.66699 18.667 -17.667 32.667 -33 42c-10 6 -21 9.83301 -33 11.5s-27.333 2.5 -46 2.5h-29z" />
    <glyph glyph-name="Egrave" unicode="&#xc8;" horiz-adv-x="556" 
d="M221 0h-180v750h169l-17 -419l141 419h181v-750h-169l16 418l-2 2z" />
    <glyph glyph-name="Egrave" unicode="&#x418;" horiz-adv-x="556" 
d="M221 0h-180v750h169l-17 -419l141 419h181v-750h-169l16 418l-2 2z" />
    <glyph glyph-name="Eacute" unicode="&#xc9;" horiz-adv-x="556" 
d="M221 0h-180v750h169l-17 -419l141 419h181v-750h-169l16 418l-2 2zM95 960l79 -0.000976562c2.66699 -24 15.334 -41 38.001 -51c17.333 -7.33301 40 -11 68 -11s49 3.66699 63 11c17.333 9.33301 29.666 26.333 36.999 51h77c0 -49.333 -18.333 -87.666 -55 -114.999
c-34 -25.333 -76.333 -38 -127 -38c-56 0 -99 11.333 -129 34c-34 26 -51 65.667 -51 119z" />
    <glyph glyph-name="Eacute" unicode="&#x419;" horiz-adv-x="556" 
d="M221 0h-180v750h169l-17 -419l141 419h181v-750h-169l16 418l-2 2zM95 960l79 -0.000976562c2.66699 -24 15.334 -41 38.001 -51c17.333 -7.33301 40 -11 68 -11s49 3.66699 63 11c17.333 9.33301 29.666 26.333 36.999 51h77c0 -49.333 -18.333 -87.666 -55 -114.999
c-34 -25.333 -76.333 -38 -127 -38c-56 0 -99 11.333 -129 34c-34 26 -51 65.667 -51 119z" />
    <glyph glyph-name="Ecircumflex" unicode="&#xca;" horiz-adv-x="556" 
d="M220 0h-176v750h176v-300l132 300h180l-160 -331l170 -419h-186l-97 261l-39 -76v-185z" />
    <glyph glyph-name="Ecircumflex" unicode="&#x41a;" horiz-adv-x="556" 
d="M220 0h-176v750h176v-300l132 300h180l-160 -331l170 -419h-186l-97 261l-39 -76v-185z" />
    <glyph glyph-name="Edieresis" unicode="&#xcb;" horiz-adv-x="556" 
d="M0 -18l0.000976562 150.001c45.333 0 71.666 26.667 78.999 80c3.33301 24 5 67.667 5 131v407h431v-750h-176v600h-94v-257c0 -88.667 -3 -150 -9 -184c-10 -56.667 -31.667 -99.334 -65 -128.001c-38 -32.667 -95 -49 -171 -49z" />
    <glyph glyph-name="Edieresis" unicode="&#x41b;" horiz-adv-x="556" 
d="M0 -18l0.000976562 150.001c45.333 0 71.666 26.667 78.999 80c3.33301 24 5 67.667 5 131v407h431v-750h-176v600h-94v-257c0 -88.667 -3 -150 -9 -184c-10 -56.667 -31.667 -99.334 -65 -128.001c-38 -32.667 -95 -49 -171 -49z" />
    <glyph glyph-name="Igrave" unicode="&#xcc;" horiz-adv-x="778" 
d="M216 0h-167v750h248l91 -443l96 443h246v-750h-168l18 588l-126 -588h-131l-121 588z" />
    <glyph glyph-name="Igrave" unicode="&#x41c;" horiz-adv-x="778" 
d="M216 0h-167v750h248l91 -443l96 443h246v-750h-168l18 588l-126 -588h-131l-121 588z" />
    <glyph glyph-name="Iacute" unicode="&#xcd;" horiz-adv-x="556" 
d="M217 0h-176v750h176v-288h122v288h176v-750h-176v312h-122v-312z" />
    <glyph glyph-name="Iacute" unicode="&#x41d;" horiz-adv-x="556" 
d="M217 0h-176v750h176v-288h122v288h176v-750h-176v312h-122v-312z" />
    <glyph glyph-name="Icircumflex" unicode="&#xce;" horiz-adv-x="556" 
d="M341 224l0.000976562 307.999c0 30.667 -3 53.334 -9 68.001c-9.33301 22 -27 33 -53 33c-24.667 0 -42 -11 -52 -33c-7.33301 -16 -11 -38.667 -11 -68v-308c0 -30 3.33301 -53 10 -69c10.667 -25.333 28.667 -38 54 -38s42.666 12.333 51.999 37c6 16 9 39.333 9 70z
M517.001 543.999v-305c0 -88 -17 -152 -51 -192c-37.333 -43.333 -99.333 -65 -186 -65s-149 21.667 -187 65c-35.333 40 -53 104 -53 192v305c0 72 20.667 127.333 62 166s100.666 58 177.999 58c76.667 0 135.334 -19.333 176.001 -58s61 -94 61 -166z" />
    <glyph glyph-name="Icircumflex" unicode="&#x41e;" horiz-adv-x="556" 
d="M341 224l0.000976562 307.999c0 30.667 -3 53.334 -9 68.001c-9.33301 22 -27 33 -53 33c-24.667 0 -42 -11 -52 -33c-7.33301 -16 -11 -38.667 -11 -68v-308c0 -30 3.33301 -53 10 -69c10.667 -25.333 28.667 -38 54 -38s42.666 12.333 51.999 37c6 16 9 39.333 9 70z
M517.001 543.999v-305c0 -88 -17 -152 -51 -192c-37.333 -43.333 -99.333 -65 -186 -65s-149 21.667 -187 65c-35.333 40 -53 104 -53 192v305c0 72 20.667 127.333 62 166s100.666 58 177.999 58c76.667 0 135.334 -19.333 176.001 -58s61 -94 61 -166z" />
    <glyph glyph-name="Idieresis" unicode="&#xcf;" horiz-adv-x="556" 
d="M217 0h-176v750h474v-750h-176v600h-122v-600z" />
    <glyph glyph-name="Idieresis" unicode="&#x41f;" horiz-adv-x="556" 
d="M217 0h-176v750h474v-750h-176v600h-122v-600z" />
    <glyph glyph-name="Eth" unicode="&#xd0;" horiz-adv-x="556" 
d="M229 615l-0.000976562 -188h25c16 0 29.833 1.16699 41.5 3.5s22.5 7.5 32.5 15.5c8.66699 9.33301 14.5 20.166 17.5 32.499s4.5 26.833 4.5 43.5c0 20.667 -1.66699 37 -5 49c-5.33301 19.333 -14.666 32 -27.999 38c-7.33301 2.66699 -15.5 4.33398 -24.5 5.00098
s-20.5 1 -34.5 1h-10h-19zM228.999 0l-176 -0.00292969v750h209c45.333 0 83.333 -3.33301 114 -10c46 -10 79.667 -27.333 101 -52c18.667 -21.333 32 -46.666 40 -75.999c6 -22.667 9 -51.667 9 -87c0 -48 -6.33301 -88.333 -19 -121
c-16 -41.333 -42.667 -70.666 -80 -87.999c-19.333 -9.33301 -40.5 -15.666 -63.5 -18.999s-49.5 -5 -79.5 -5h-55v-292z" />
    <glyph glyph-name="Eth" unicode="&#x420;" horiz-adv-x="556" 
d="M229 615l-0.000976562 -188h25c16 0 29.833 1.16699 41.5 3.5s22.5 7.5 32.5 15.5c8.66699 9.33301 14.5 20.166 17.5 32.499s4.5 26.833 4.5 43.5c0 20.667 -1.66699 37 -5 49c-5.33301 19.333 -14.666 32 -27.999 38c-7.33301 2.66699 -15.5 4.33398 -24.5 5.00098
s-20.5 1 -34.5 1h-10h-19zM228.999 0l-176 -0.00292969v750h209c45.333 0 83.333 -3.33301 114 -10c46 -10 79.667 -27.333 101 -52c18.667 -21.333 32 -46.666 40 -75.999c6 -22.667 9 -51.667 9 -87c0 -48 -6.33301 -88.333 -19 -121
c-16 -41.333 -42.667 -70.666 -80 -87.999c-19.333 -9.33301 -40.5 -15.666 -63.5 -18.999s-49.5 -5 -79.5 -5h-55v-292z" />
    <glyph glyph-name="Ntilde" unicode="&#xd1;" horiz-adv-x="556" 
d="M515 488l-175.998 0.000976562v48c0 64.667 -18.667 97 -56 97c-26 0 -43.833 -6.33301 -53.5 -19s-14.5 -32.334 -14.5 -59.001v-371c0 -22.667 4.66699 -39.5 14 -50.5s25.333 -16.5 48 -16.5c26.667 0 45 12 55 36c6.66699 16 10 40 10 72v68h176v-92
c0 -68 -19.667 -120.667 -59 -158c-43.333 -40.667 -108.333 -61 -195 -61c-78.667 0 -135.834 20.167 -171.501 60.5s-53.5 99.833 -53.5 178.5v308c0 81.333 19.167 141.5 57.5 180.5s97.833 58.5 178.5 58.5c77.333 0 136.666 -17.5 177.999 -52.5s62 -89.833 62 -164.5
v-63z" />
    <glyph glyph-name="Ntilde" unicode="&#x421;" horiz-adv-x="556" 
d="M515 488l-175.998 0.000976562v48c0 64.667 -18.667 97 -56 97c-26 0 -43.833 -6.33301 -53.5 -19s-14.5 -32.334 -14.5 -59.001v-371c0 -22.667 4.66699 -39.5 14 -50.5s25.333 -16.5 48 -16.5c26.667 0 45 12 55 36c6.66699 16 10 40 10 72v68h176v-92
c0 -68 -19.667 -120.667 -59 -158c-43.333 -40.667 -108.333 -61 -195 -61c-78.667 0 -135.834 20.167 -171.501 60.5s-53.5 99.833 -53.5 178.5v308c0 81.333 19.167 141.5 57.5 180.5s97.833 58.5 178.5 58.5c77.333 0 136.666 -17.5 177.999 -52.5s62 -89.833 62 -164.5
v-63z" />
    <glyph glyph-name="Ograve" unicode="&#xd2;" 
d="M22 600v150h456v-150h-142v-600h-176v600h-138z" />
    <glyph glyph-name="Ograve" unicode="&#x422;" 
d="M22 600v150h456v-150h-142v-600h-176v600h-138z" />
    <glyph glyph-name="Oacute" unicode="&#xd3;" horiz-adv-x="556" 
d="M391 207c-19.333 -67.333 -35 -112.666 -47 -135.999c-30 -59.333 -83.667 -89 -161 -89c-22 0 -43 1.66699 -63 5v150c15.333 -3.33301 31.333 -5 48 -5c10.667 0 20.5 3.66699 29.5 11s15.5 16.666 19.5 27.999l14 36l-222 543h178l108 -323l76 323h176z" />
    <glyph glyph-name="Oacute" unicode="&#x423;" horiz-adv-x="556" 
d="M391 207c-19.333 -67.333 -35 -112.666 -47 -135.999c-30 -59.333 -83.667 -89 -161 -89c-22 0 -43 1.66699 -63 5v150c15.333 -3.33301 31.333 -5 48 -5c10.667 0 20.5 3.66699 29.5 11s15.5 16.666 19.5 27.999l14 36l-222 543h178l108 -323l76 323h176z" />
    <glyph glyph-name="Ocircumflex" unicode="&#xd4;" horiz-adv-x="814" 
d="M319 510l-12 0.000976562c-41.333 0 -69 -11.333 -83 -34c-11.333 -18.667 -17 -52.334 -17 -101.001c0 -48 5.66699 -81.333 17 -100c14 -23.333 41.667 -35 83 -35h12v270zM495 510.001v-270.001h12c41.333 0 69 11.333 83 34c11.333 18.667 17 52.334 17 101.001
c0 48 -5.66699 81.333 -17 100c-14 23.333 -41.667 35 -83 35h-12zM495 750v-105h45c90.667 0 155 -24.333 193 -73c33.333 -42.667 50 -108.334 50 -197.001c0 -89.333 -16.333 -155 -49 -197c-38 -48.667 -102.667 -73 -194 -73h-45v-105h-176v105h-45
c-90.667 0 -155 24.333 -193 73c-33.333 42.667 -50 108.334 -50 197.001c0 89.333 16.333 155 49 197c38 48.667 102.667 73 194 73h45v105h176z" />
    <glyph glyph-name="Ocircumflex" unicode="&#x424;" horiz-adv-x="814" 
d="M319 510l-12 0.000976562c-41.333 0 -69 -11.333 -83 -34c-11.333 -18.667 -17 -52.334 -17 -101.001c0 -48 5.66699 -81.333 17 -100c14 -23.333 41.667 -35 83 -35h12v270zM495 510.001v-270.001h12c41.333 0 69 11.333 83 34c11.333 18.667 17 52.334 17 101.001
c0 48 -5.66699 81.333 -17 100c-14 23.333 -41.667 35 -83 35h-12zM495 750v-105h45c90.667 0 155 -24.333 193 -73c33.333 -42.667 50 -108.334 50 -197.001c0 -89.333 -16.333 -155 -49 -197c-38 -48.667 -102.667 -73 -194 -73h-45v-105h-176v105h-45
c-90.667 0 -155 24.333 -193 73c-33.333 42.667 -50 108.334 -50 197.001c0 89.333 16.333 155 49 197c38 48.667 102.667 73 194 73h45v105h176z" />
    <glyph glyph-name="Otilde" unicode="&#xd5;" horiz-adv-x="556" 
d="M197 750l82 -228l82 228h176l-156 -376l163 -374h-176l-85 224l-102 -224h-168l167 374l-158 376h175z" />
    <glyph glyph-name="Otilde" unicode="&#x425;" horiz-adv-x="556" 
d="M197 750l82 -228l82 228h176l-156 -376l163 -374h-176l-85 224l-102 -224h-168l167 374l-158 376h175z" />
    <glyph glyph-name="Odieresis" unicode="&#xd6;" horiz-adv-x="556" 
d="M395 0h-354v750h176v-600h122v600h176v-600h41v-258h-161v108z" />
    <glyph glyph-name="Odieresis" unicode="&#x426;" horiz-adv-x="556" 
d="M395 0h-354v750h176v-600h122v600h176v-600h41v-258h-161v108z" />
    <glyph glyph-name="multiply" unicode="&#xd7;" horiz-adv-x="537" 
d="M32 750h176v-268c0 -10.667 2.33301 -19 7 -25c7.33301 -10 19.666 -15 36.999 -15c24.667 0 47.334 6.66699 68.001 20v288h176v-750h-176v312c-27.333 -10.667 -48.333 -17.667 -63 -21c-24.667 -6 -50.667 -9 -78 -9c-50 0 -87 16.333 -111 49s-36 79.667 -36 141v278
z" />
    <glyph glyph-name="multiply" unicode="&#x427;" horiz-adv-x="537" 
d="M32 750h176v-268c0 -10.667 2.33301 -19 7 -25c7.33301 -10 19.666 -15 36.999 -15c24.667 0 47.334 6.66699 68.001 20v288h176v-750h-176v312c-27.333 -10.667 -48.333 -17.667 -63 -21c-24.667 -6 -50.667 -9 -78 -9c-50 0 -87 16.333 -111 49s-36 79.667 -36 141v278
z" />
    <glyph glyph-name="Oslash" unicode="&#xd8;" horiz-adv-x="778" 
d="M301 150v600h176v-600h84v600h176v-750h-696v750h176v-600h84z" />
    <glyph glyph-name="Oslash" unicode="&#x428;" horiz-adv-x="778" 
d="M301 150v600h176v-600h84v600h176v-750h-696v750h176v-600h84z" />
    <glyph glyph-name="Ugrave" unicode="&#xd9;" horiz-adv-x="778" 
d="M617 0h-576v750h176v-600h84v600h176v-600h84v600h176v-600h41v-258h-161v108z" />
    <glyph glyph-name="Ugrave" unicode="&#x429;" horiz-adv-x="778" 
d="M617 0h-576v750h176v-600h84v600h176v-600h84v600h176v-600h41v-258h-161v108z" />
    <glyph glyph-name="Uacute" unicode="&#xda;" horiz-adv-x="611" 
d="M284 135h19.001c30.667 0 53.667 2.66699 69 8c13.333 6 22.666 18.667 27.999 38c3.33301 12 5 28.333 5 49c0 15.333 -1.5 29.5 -4.5 42.5s-8.83301 24.167 -17.5 33.5c-8 6.66699 -18 11.167 -30 13.5s-25.333 3.5 -40 3.5h-29v-188zM108.001 600h-85.998v150h262
v-292h55c33.333 0 60.166 -1.33301 80.499 -4s41.166 -9.33398 62.499 -20.001c36 -16.667 62.333 -46 79 -88c13.333 -34 20 -74.333 20 -121c0 -34.667 -3.33301 -65.167 -10 -91.5s-19.667 -50.166 -39 -71.499c-22 -24.667 -55.333 -42 -100 -52
c-30.667 -6.66699 -69 -10 -115 -10h-209v600z" />
    <glyph glyph-name="Uacute" unicode="&#x42a;" horiz-adv-x="611" 
d="M284 135h19.001c30.667 0 53.667 2.66699 69 8c13.333 6 22.666 18.667 27.999 38c3.33301 12 5 28.333 5 49c0 15.333 -1.5 29.5 -4.5 42.5s-8.83301 24.167 -17.5 33.5c-8 6.66699 -18 11.167 -30 13.5s-25.333 3.5 -40 3.5h-29v-188zM108.001 600h-85.998v150h262
v-292h55c33.333 0 60.166 -1.33301 80.499 -4s41.166 -9.33398 62.499 -20.001c36 -16.667 62.333 -46 79 -88c13.333 -34 20 -74.333 20 -121c0 -34.667 -3.33301 -65.167 -10 -91.5s-19.667 -50.166 -39 -71.499c-22 -24.667 -55.333 -42 -100 -52
c-30.667 -6.66699 -69 -10 -115 -10h-209v600z" />
    <glyph glyph-name="Ucircumflex" unicode="&#xdb;" horiz-adv-x="833" 
d="M229 750l0.00195312 -292h55c33.333 0 60.166 -1.33301 80.499 -4s41.166 -9.33398 62.499 -20.001c36 -16.667 62.333 -46 79 -88c13.333 -34 20 -74.333 20 -121c0 -34.667 -3.33301 -65.167 -10 -91.5s-19.667 -50.166 -39 -71.499c-22 -24.667 -55.333 -42 -100 -52
c-30.667 -6.66699 -69 -10 -115 -10h-209v750h176zM229.002 135h19.001c28.667 0 51.667 3 69 9c13.333 6 22.666 18.667 27.999 38c3.33301 12 5 28.333 5 49c0 15.333 -1.5 29.5 -4.5 42.5s-8.83301 24.167 -17.5 33.5c-8.66699 6.66699 -18 11.167 -28 13.5
s-22 3.5 -36 3.5c-6 0 -12 -0.166992 -18 -0.5s-11.667 -0.5 -17 -0.5v-188zM777.003 0h-176v750h176v-750z" />
    <glyph glyph-name="Ucircumflex" unicode="&#x42b;" horiz-adv-x="833" 
d="M229 750l0.00195312 -292h55c33.333 0 60.166 -1.33301 80.499 -4s41.166 -9.33398 62.499 -20.001c36 -16.667 62.333 -46 79 -88c13.333 -34 20 -74.333 20 -121c0 -34.667 -3.33301 -65.167 -10 -91.5s-19.667 -50.166 -39 -71.499c-22 -24.667 -55.333 -42 -100 -52
c-30.667 -6.66699 -69 -10 -115 -10h-209v750h176zM229.002 135h19.001c28.667 0 51.667 3 69 9c13.333 6 22.666 18.667 27.999 38c3.33301 12 5 28.333 5 49c0 15.333 -1.5 29.5 -4.5 42.5s-8.83301 24.167 -17.5 33.5c-8.66699 6.66699 -18 11.167 -28 13.5
s-22 3.5 -36 3.5c-6 0 -12 -0.166992 -18 -0.5s-11.667 -0.5 -17 -0.5v-188zM777.003 0h-176v750h176v-750z" />
    <glyph glyph-name="Udieresis" unicode="&#xdc;" horiz-adv-x="556" 
d="M229 750l0.00195312 -292h55c33.333 0 60.166 -1.33301 80.499 -4s41.166 -9.33398 62.499 -20.001c36 -16.667 62.333 -46 79 -88c13.333 -34 20 -74.333 20 -121c0 -34.667 -3.33301 -65.167 -10 -91.5s-19.667 -50.166 -39 -71.499c-22 -24.667 -55.333 -42 -100 -52
c-30.667 -6.66699 -69 -10 -115 -10h-209v750h176zM229.002 135h19.001c30.667 0 53.667 2.66699 69 8c13.333 6 22.666 18.667 27.999 38c3.33301 12 5 28.333 5 49c0 15.333 -1.5 29.5 -4.5 42.5s-8.83301 24.167 -17.5 33.5c-8 6.66699 -18 11.167 -30 13.5
s-25.333 3.5 -40 3.5h-29v-188z" />
    <glyph glyph-name="Udieresis" unicode="&#x42c;" horiz-adv-x="556" 
d="M229 750l0.00195312 -292h55c33.333 0 60.166 -1.33301 80.499 -4s41.166 -9.33398 62.499 -20.001c36 -16.667 62.333 -46 79 -88c13.333 -34 20 -74.333 20 -121c0 -34.667 -3.33301 -65.167 -10 -91.5s-19.667 -50.166 -39 -71.499c-22 -24.667 -55.333 -42 -100 -52
c-30.667 -6.66699 -69 -10 -115 -10h-209v750h176zM229.002 135h19.001c30.667 0 53.667 2.66699 69 8c13.333 6 22.666 18.667 27.999 38c3.33301 12 5 28.333 5 49c0 15.333 -1.5 29.5 -4.5 42.5s-8.83301 24.167 -17.5 33.5c-8 6.66699 -18 11.167 -30 13.5
s-25.333 3.5 -40 3.5h-29v-188z" />
    <glyph glyph-name="Yacute" unicode="&#xdd;" horiz-adv-x="556" 
d="M341 462v93.001c0 26 -4.33301 45 -13 57c-10.667 14 -29 21 -55 21c-37.333 0 -56 -32.333 -56 -97v-7h-176v22c0 74.667 20.5 129.5 61.5 164.5s100.5 52.5 178.5 52.5c80.667 0 140.167 -19.5 178.5 -58.5s57.5 -99.167 57.5 -180.5v-308
c0 -79.333 -17 -138.333 -51 -177c-36.667 -41.333 -94.667 -62 -174 -62c-86 0 -150.667 20.333 -194 61c-40 38 -60 90.667 -60 158v51h176v-27c0 -30.667 3.33301 -54.334 10 -71.001c10 -24.667 28.333 -37 55 -37c22 0 37.833 5.5 47.5 16.5s14.5 27.833 14.5 50.5
l1 128h-150v150h149z" />
    <glyph glyph-name="Yacute" unicode="&#x42d;" horiz-adv-x="556" 
d="M341 462v93.001c0 26 -4.33301 45 -13 57c-10.667 14 -29 21 -55 21c-37.333 0 -56 -32.333 -56 -97v-7h-176v22c0 74.667 20.5 129.5 61.5 164.5s100.5 52.5 178.5 52.5c80.667 0 140.167 -19.5 178.5 -58.5s57.5 -99.167 57.5 -180.5v-308
c0 -79.333 -17 -138.333 -51 -177c-36.667 -41.333 -94.667 -62 -174 -62c-86 0 -150.667 20.333 -194 61c-40 38 -60 90.667 -60 158v51h176v-27c0 -30.667 3.33301 -54.334 10 -71.001c10 -24.667 28.333 -37 55 -37c22 0 37.833 5.5 47.5 16.5s14.5 27.833 14.5 50.5
l1 128h-150v150h149z" />
    <glyph glyph-name="Thorn" unicode="&#xde;" horiz-adv-x="815" 
d="M599 224l0.000976562 308c0 34 -2 56.667 -6 68c-8 22 -25 33 -51 33c-24.667 0 -41.334 -11 -50.001 -33c-5.33301 -14 -8 -36.667 -8 -68v-308c0 -30.667 2.66699 -53.667 8 -69c8.66699 -25.333 25.667 -38 51 -38c24.667 0 41 12.333 49 37c4.66699 14.667 7 38 7 70
zM308.001 312h-91v-312h-176v750h176v-288h91v82c0 72.667 19.833 128.167 59.5 166.5s98.167 57.5 175.5 57.5c76.667 0 134.5 -19.167 173.5 -57.5s58.5 -93.833 58.5 -166.5v-305c0 -88.667 -16.333 -152.667 -49 -192c-36 -43.333 -97 -65 -183 -65
s-147.333 21.667 -184 65c-34 40 -51 104 -51 192v73z" />
    <glyph glyph-name="Thorn" unicode="&#x42e;" horiz-adv-x="815" 
d="M599 224l0.000976562 308c0 34 -2 56.667 -6 68c-8 22 -25 33 -51 33c-24.667 0 -41.334 -11 -50.001 -33c-5.33301 -14 -8 -36.667 -8 -68v-308c0 -30.667 2.66699 -53.667 8 -69c8.66699 -25.333 25.667 -38 51 -38c24.667 0 41 12.333 49 37c4.66699 14.667 7 38 7 70
zM308.001 312h-91v-312h-176v750h176v-288h91v82c0 72.667 19.833 128.167 59.5 166.5s98.167 57.5 175.5 57.5c76.667 0 134.5 -19.167 173.5 -57.5s58.5 -93.833 58.5 -166.5v-305c0 -88.667 -16.333 -152.667 -49 -192c-36 -43.333 -97 -65 -183 -65
s-147.333 21.667 -184 65c-34 40 -51 104 -51 192v73z" />
    <glyph glyph-name="germandbls" unicode="&#xdf;" horiz-adv-x="556" 
d="M338 296l-57.999 0.00195312c-18.667 0 -32.667 -6.83301 -42 -20.5s-15 -29.834 -17 -48.501s-3.33301 -41.667 -4 -69s-1 -49.333 -1 -66v-49c0 -6.66699 -0.666992 -12.834 -2 -18.501s-4 -13.834 -8 -24.501h-192v10c6.66699 6 12.334 14.667 17.001 26
c4.66699 22.667 8.5 58.167 11.5 106.5s4.5 91.833 4.5 130.5c0 25.333 8 46.333 24 63s37 28 63 34c-34.667 16.667 -58.834 39 -72.501 67s-20.5 63.333 -20.5 106c0 72.667 17.667 125.334 53 158.001s89.666 49 162.999 49h257v-750h-176v296zM338.001 615.002
c-40.667 0 -66 -1.33398 -76 -4.00098c-31.333 -8 -47 -37 -47 -87c0 -27.333 4.5 -49.666 13.5 -66.999s25.5 -26 49.5 -26h60v184z" />
    <glyph glyph-name="germandbls" unicode="&#x42f;" horiz-adv-x="556" 
d="M338 296l-57.999 0.00195312c-18.667 0 -32.667 -6.83301 -42 -20.5s-15 -29.834 -17 -48.501s-3.33301 -41.667 -4 -69s-1 -49.333 -1 -66v-49c0 -6.66699 -0.666992 -12.834 -2 -18.501s-4 -13.834 -8 -24.501h-192v10c6.66699 6 12.334 14.667 17.001 26
c4.66699 22.667 8.5 58.167 11.5 106.5s4.5 91.833 4.5 130.5c0 25.333 8 46.333 24 63s37 28 63 34c-34.667 16.667 -58.834 39 -72.501 67s-20.5 63.333 -20.5 106c0 72.667 17.667 125.334 53 158.001s89.666 49 162.999 49h257v-750h-176v296zM338.001 615.002
c-40.667 0 -66 -1.33398 -76 -4.00098c-31.333 -8 -47 -37 -47 -87c0 -27.333 4.5 -49.666 13.5 -66.999s25.5 -26 49.5 -26h60v184z" />
    <glyph glyph-name="agrave" unicode="&#xe0;" 
d="M301 184v87.999l-52.5 -24c-9 -4 -18.667 -9.83301 -29 -17.5s-18.833 -17.167 -25.5 -28.5s-10 -25.666 -10 -42.999c0 -18 5.16699 -32.5 15.5 -43.5s24.833 -16.5 43.5 -16.5c20.667 0 36 9.66699 46 29c8 15.333 12 34 12 56zM318 -0.000976562l-10.999 50.002
c-20.667 -23.333 -41.334 -40.5 -62.001 -51.5s-45.667 -16.5 -75 -16.5c-45.333 0 -81 13.667 -107 41s-39 63.666 -39 108.999c0 57.333 14.333 102 43 134c20.667 23.333 52.667 42 96 56l95 31c28.667 13.333 43 33 43 59c0 16.667 -4.5 30.5 -13.5 41.5
s-21.167 16.5 -36.5 16.5c-26 0 -43.333 -8.66699 -52 -26c-6 -12 -9 -32.333 -9 -61h-159c0 67.333 19.667 117 59 149c36 29.333 88 44 156 44c78.667 0 134 -13 166 -39s48 -70 48 -132v-343c0 -8.66699 1.16699 -18.334 3.5 -29.001s5.5 -21.667 9.5 -33h-155z" />
    <glyph glyph-name="agrave" unicode="&#x430;" 
d="M301 184v87.999l-52.5 -24c-9 -4 -18.667 -9.83301 -29 -17.5s-18.833 -17.167 -25.5 -28.5s-10 -25.666 -10 -42.999c0 -18 5.16699 -32.5 15.5 -43.5s24.833 -16.5 43.5 -16.5c20.667 0 36 9.66699 46 29c8 15.333 12 34 12 56zM318 -0.000976562l-10.999 50.002
c-20.667 -23.333 -41.334 -40.5 -62.001 -51.5s-45.667 -16.5 -75 -16.5c-45.333 0 -81 13.667 -107 41s-39 63.666 -39 108.999c0 57.333 14.333 102 43 134c20.667 23.333 52.667 42 96 56l95 31c28.667 13.333 43 33 43 59c0 16.667 -4.5 30.5 -13.5 41.5
s-21.167 16.5 -36.5 16.5c-26 0 -43.333 -8.66699 -52 -26c-6 -12 -9 -32.333 -9 -61h-159c0 67.333 19.667 117 59 149c36 29.333 88 44 156 44c78.667 0 134 -13 166 -39s48 -70 48 -132v-343c0 -8.66699 1.16699 -18.334 3.5 -29.001s5.5 -21.667 9.5 -33h-155z" />
    <glyph glyph-name="aacute" unicode="&#xe1;" 
d="M201 348v-201c0 -33.333 16.333 -50 49 -50c15.333 0 27.333 4.33301 36 13s13 20.667 13 36v209c0 32.667 -3.5 56 -10.5 70s-19.833 21 -38.5 21c-18 0 -30.667 -8.5 -38 -25.5s-11 -41.167 -11 -72.5zM42 494c0 70.667 10.333 126.333 31 167c28 55.333 76 88 144 98
c47.333 7.33301 76 12.333 86 15c25.333 6.66699 38 15.334 38 26.001h106c0 -55.333 -14.333 -96 -43 -122c-26 -24 -67.333 -39.667 -124 -47c-38.667 -4.66699 -68.167 -19.167 -88.5 -43.5s-30.5 -56.5 -30.5 -96.5c34 56.667 80.667 85 140 85
c104.667 0 157 -63.667 157 -191v-229c0 -52.667 -19.167 -94.834 -57.5 -126.501s-88.5 -47.5 -150.5 -47.5s-111 13 -147 39c-40.667 29.333 -61 74.333 -61 135v338z" />
    <glyph glyph-name="aacute" unicode="&#x431;" 
d="M201 348v-201c0 -33.333 16.333 -50 49 -50c15.333 0 27.333 4.33301 36 13s13 20.667 13 36v209c0 32.667 -3.5 56 -10.5 70s-19.833 21 -38.5 21c-18 0 -30.667 -8.5 -38 -25.5s-11 -41.167 -11 -72.5zM42 494c0 70.667 10.333 126.333 31 167c28 55.333 76 88 144 98
c47.333 7.33301 76 12.333 86 15c25.333 6.66699 38 15.334 38 26.001h106c0 -55.333 -14.333 -96 -43 -122c-26 -24 -67.333 -39.667 -124 -47c-38.667 -4.66699 -68.167 -19.167 -88.5 -43.5s-30.5 -56.5 -30.5 -96.5c34 56.667 80.667 85 140 85
c104.667 0 157 -63.667 157 -191v-229c0 -52.667 -19.167 -94.834 -57.5 -126.501s-88.5 -47.5 -150.5 -47.5s-111 13 -147 39c-40.667 29.333 -61 74.333 -61 135v338z" />
    <glyph glyph-name="acircumflex" unicode="&#xe2;" 
d="M223 234h-15v-121h15c34 0 56 2.66699 66 8c14.667 8 22 26.333 22 55c0 26 -6.66699 42.167 -20 48.5s-36 9.5 -68 9.5zM223 447h-15v-101h15c30 0 49.333 2.33301 58 7c13.333 7.33301 20 24 20 50c0 19.333 -6 31.5 -18 36.5s-32 7.5 -60 7.5zM275 0h-225.999v560h209
c62 0 109.667 -10 143 -30c39.333 -24 59 -62.333 59 -115c0 -27.333 -7.16699 -51.166 -21.5 -71.499s-34.5 -35.5 -60.5 -45.5c28.667 -12.667 51.167 -30.334 67.5 -53.001s24.5 -50.334 24.5 -83.001c0 -55.333 -16.833 -96.166 -50.5 -122.499
s-81.834 -39.5 -144.501 -39.5z" />
    <glyph glyph-name="acircumflex" unicode="&#x432;" 
d="M223 234h-15v-121h15c34 0 56 2.66699 66 8c14.667 8 22 26.333 22 55c0 26 -6.66699 42.167 -20 48.5s-36 9.5 -68 9.5zM223 447h-15v-101h15c30 0 49.333 2.33301 58 7c13.333 7.33301 20 24 20 50c0 19.333 -6 31.5 -18 36.5s-32 7.5 -60 7.5zM275 0h-225.999v560h209
c62 0 109.667 -10 143 -30c39.333 -24 59 -62.333 59 -115c0 -27.333 -7.16699 -51.166 -21.5 -71.499s-34.5 -35.5 -60.5 -45.5c28.667 -12.667 51.167 -30.334 67.5 -53.001s24.5 -50.334 24.5 -83.001c0 -55.333 -16.833 -96.166 -50.5 -122.499
s-81.834 -39.5 -144.501 -39.5z" />
    <glyph glyph-name="atilde" unicode="&#xe3;" horiz-adv-x="407" 
d="M387 560v-124h-182v-436h-159v560h341z" />
    <glyph glyph-name="atilde" unicode="&#x433;" horiz-adv-x="407" 
d="M387 560v-124h-182v-436h-159v560h341z" />
    <glyph glyph-name="adieresis" unicode="&#xe4;" 
d="M5 124c32.667 0 53.333 14.667 62 44c6 20 9 62 9 126v266h378v-436h35v-232h-146v108h-192v-108h-146v232zM294.999 124v312h-73v-154c0 -42.667 -1 -71 -3 -85c-4 -28.667 -13.333 -53 -28 -73h104z" />
    <glyph glyph-name="adieresis" unicode="&#x434;" 
d="M5 124c32.667 0 53.333 14.667 62 44c6 20 9 62 9 126v266h378v-436h35v-232h-146v108h-192v-108h-146v232zM294.999 124v312h-73v-154c0 -42.667 -1 -71 -3 -85c-4 -28.667 -13.333 -53 -28 -73h104z" />
    <glyph glyph-name="aring" unicode="&#xe5;" 
d="M197 359l110 0.000976562v55c0 14 -3.66699 26 -11 36c-10 14 -24.333 21 -43 21c-20.667 0 -35.167 -6.83301 -43.5 -20.5s-12.5 -31.834 -12.5 -54.501v-37zM466 254.001h-269.001v-98c0 -17.333 4 -31.5 12 -42.5s20.333 -16.5 37 -16.5c26 0 42.667 10.333 50 31
c4 11.333 6 33.333 6 66h158c0 -141.333 -69.333 -212 -208 -212c-62.667 0 -112.667 13 -150 39c-42.667 30 -64 75 -64 135v228c0 68 20.333 118 61 150c35.333 28 86.333 42 153 42c62.667 0 112.334 -11.667 149.001 -35c43.333 -28 65 -70.333 65 -127v-160z" />
    <glyph glyph-name="aring" unicode="&#x435;" 
d="M197 359l110 0.000976562v55c0 14 -3.66699 26 -11 36c-10 14 -24.333 21 -43 21c-20.667 0 -35.167 -6.83301 -43.5 -20.5s-12.5 -31.834 -12.5 -54.501v-37zM466 254.001h-269.001v-98c0 -17.333 4 -31.5 12 -42.5s20.333 -16.5 37 -16.5c26 0 42.667 10.333 50 31
c4 11.333 6 33.333 6 66h158c0 -141.333 -69.333 -212 -208 -212c-62.667 0 -112.667 13 -150 39c-42.667 30 -64 75 -64 135v228c0 68 20.333 118 61 150c35.333 28 86.333 42 153 42c62.667 0 112.334 -11.667 149.001 -35c43.333 -28 65 -70.333 65 -127v-160z" />
    <glyph glyph-name="ae" unicode="&#xe6;" horiz-adv-x="740" 
d="M449 560v-187l111 187h174l-158 -225l160 -335h-167l-93 216l-27 -36v-180h-159v180l-27 36l-93 -216h-167l160 335l-158 225h174l109 -187l2 187h159z" />
    <glyph glyph-name="ae" unicode="&#x436;" horiz-adv-x="740" 
d="M449 560v-187l111 187h174l-158 -225l160 -335h-167l-93 216l-27 -36v-180h-159v180l-27 36l-93 -216h-167l160 335l-158 225h174l109 -187l2 187h159z" />
    <glyph glyph-name="ccedilla" unicode="&#xe7;" horiz-adv-x="482" 
d="M171 232l0.000976562 113.999h24c14.667 0 28 0.833008 40 2.5s22.5 5.16699 31.5 10.5s14.5 11.833 16.5 19.5s3 18.834 3 33.501c0 15.333 -3.66699 27.333 -11 36s-19.333 13 -36 13c-20.667 0 -34.334 -7.33301 -41.001 -22c-4 -8.66699 -6 -23.334 -6 -44.001h-153
v40c0 41.333 19.5 75.166 58.5 101.499s87.167 39.5 144.5 39.5c60 0 108.167 -12.5 144.5 -37.5s54.5 -62.5 54.5 -112.5c0 -66 -27.667 -108.667 -83 -128c29.333 -11.333 52.5 -30.166 69.5 -56.499s25.5 -55.166 25.5 -86.499c0 -56.667 -18.667 -99.667 -56 -129
s-89.333 -44 -156 -44c-62 0 -112.167 14.667 -150.5 44s-57.5 69.333 -57.5 120l-1 42h156c0 -30 2 -50.333 6 -61c7.33301 -20 23.333 -30 48 -30c19.333 0 32.666 5.66699 39.999 17s11 26 11 44c0 14.667 -0.333008 24 -1 28c-3.33301 16.667 -11.666 28.667 -24.999 36
c-6.66699 4 -16.667 6.66699 -30 8s-27 2 -41 2h-25z" />
    <glyph glyph-name="ccedilla" unicode="&#x437;" horiz-adv-x="482" 
d="M171 232l0.000976562 113.999h24c14.667 0 28 0.833008 40 2.5s22.5 5.16699 31.5 10.5s14.5 11.833 16.5 19.5s3 18.834 3 33.501c0 15.333 -3.66699 27.333 -11 36s-19.333 13 -36 13c-20.667 0 -34.334 -7.33301 -41.001 -22c-4 -8.66699 -6 -23.334 -6 -44.001h-153
v40c0 41.333 19.5 75.166 58.5 101.499s87.167 39.5 144.5 39.5c60 0 108.167 -12.5 144.5 -37.5s54.5 -62.5 54.5 -112.5c0 -66 -27.667 -108.667 -83 -128c29.333 -11.333 52.5 -30.166 69.5 -56.499s25.5 -55.166 25.5 -86.499c0 -56.667 -18.667 -99.667 -56 -129
s-89.333 -44 -156 -44c-62 0 -112.167 14.667 -150.5 44s-57.5 69.333 -57.5 120l-1 42h156c0 -30 2 -50.333 6 -61c7.33301 -20 23.333 -30 48 -30c19.333 0 32.666 5.66699 39.999 17s11 26 11 44c0 14.667 -0.333008 24 -1 28c-3.33301 16.667 -11.666 28.667 -24.999 36
c-6.66699 4 -16.667 6.66699 -30 8s-27 2 -41 2h-25z" />
    <glyph glyph-name="egrave" unicode="&#xe8;" 
d="M208 0l-162 -0.00195312v560h153l-13 -216c0 -15.333 -1.66699 -35.666 -5 -60.999c-0.666992 -8.66699 -2.66699 -20.667 -6 -36l116 313h163v-560h-153l13 217c0 14 1.66699 33.667 5 59c0.666992 8.66699 2.66699 21.334 6 38.001z" />
    <glyph glyph-name="egrave" unicode="&#x438;" 
d="M208 0l-162 -0.00195312v560h153l-13 -216c0 -15.333 -1.66699 -35.666 -5 -60.999c-0.666992 -8.66699 -2.66699 -20.667 -6 -36l116 313h163v-560h-153l13 217c0 14 1.66699 33.667 5 59c0.666992 8.66699 2.66699 21.334 6 38.001z" />
    <glyph glyph-name="eacute" unicode="&#xe9;" 
d="M70 787l79 -0.000976562c2.66699 -24 15.334 -41 38.001 -51c17.333 -7.33301 40 -11 68 -11s49 3.66699 63 11c17.333 9.33301 29.666 26.333 36.999 51h77c0 -49.333 -18.333 -87.666 -55 -114.999c-34 -25.333 -76.333 -38 -127 -38c-56 0 -99 11.333 -129 34
c-34 26 -51 65.667 -51 119zM208 -0.000976562l-162 -0.00195312v560h153l-13 -216c0 -15.333 -1.66699 -35.666 -5 -60.999c-0.666992 -8.66699 -2.66699 -20.667 -6 -36l116 313h163v-560h-153l13 217c0 14 1.66699 33.667 5 59c0.666992 8.66699 2.66699 21.334 6 38.001
z" />
    <glyph glyph-name="eacute" unicode="&#x439;" 
d="M70 787l79 -0.000976562c2.66699 -24 15.334 -41 38.001 -51c17.333 -7.33301 40 -11 68 -11s49 3.66699 63 11c17.333 9.33301 29.666 26.333 36.999 51h77c0 -49.333 -18.333 -87.666 -55 -114.999c-34 -25.333 -76.333 -38 -127 -38c-56 0 -99 11.333 -129 34
c-34 26 -51 65.667 -51 119zM208 -0.000976562l-162 -0.00195312v560h153l-13 -216c0 -15.333 -1.66699 -35.666 -5 -60.999c-0.666992 -8.66699 -2.66699 -20.667 -6 -36l116 313h163v-560h-153l13 217c0 14 1.66699 33.667 5 59c0.666992 8.66699 2.66699 21.334 6 38.001
z" />
    <glyph glyph-name="ecircumflex" unicode="&#xea;" 
d="M205 0h-159v560h159v-187l111 187h174l-158 -225l165 -335h-177l-88 216l-27 -36v-180z" />
    <glyph glyph-name="ecircumflex" unicode="&#x43a;" 
d="M205 0h-159v560h159v-187l111 187h174l-158 -225l165 -335h-177l-88 216l-27 -36v-180z" />
    <glyph glyph-name="edieresis" unicode="&#xeb;" 
d="M5 -13l-0.000976562 124c32.667 0 53.334 12.667 62.001 38c6 17.333 9 57 9 119v292h378v-560h-159v436h-73v-180c0 -92 -10.333 -155.667 -31 -191c-30.667 -52 -92.667 -78 -186 -78z" />
    <glyph glyph-name="edieresis" unicode="&#x43b;" 
d="M5 -13l-0.000976562 124c32.667 0 53.334 12.667 62.001 38c6 17.333 9 57 9 119v292h378v-560h-159v436h-73v-180c0 -92 -10.333 -155.667 -31 -191c-30.667 -52 -92.667 -78 -186 -78z" />
    <glyph glyph-name="igrave" unicode="&#xec;" horiz-adv-x="704" 
d="M198 0h-151v560h229l74 -331l79 331h227v-560h-152l8 342l7 97l-104 -439h-129l-100 439l4 -97z" />
    <glyph glyph-name="igrave" unicode="&#x43c;" horiz-adv-x="704" 
d="M198 0h-151v560h229l74 -331l79 331h227v-560h-152l8 342l7 97l-104 -439h-129l-100 439l4 -97z" />
    <glyph glyph-name="iacute" unicode="&#xed;" 
d="M205 0h-159v560h159v-209h90v209h159v-560h-159v227h-90v-227z" />
    <glyph glyph-name="iacute" unicode="&#x43d;" 
d="M205 0h-159v560h159v-209h90v209h159v-560h-159v227h-90v-227z" />
    <glyph glyph-name="icircumflex" unicode="&#xee;" 
d="M42 156v228c0 68.667 19.333 118.667 58 150c34 28 84 42 150 42c138.667 0 208 -64 208 -192v-228c0 -61.333 -19.333 -106.333 -58 -135c-34.667 -26 -84.667 -39 -150 -39c-62 0 -111 13 -147 39c-40.667 29.333 -61 74.333 -61 135zM201 396l0.000976562 -250
c3.33301 -32.667 19.666 -49 48.999 -49c16 0 27.833 3.83301 35.5 11.5s12.167 20.167 13.5 37.5v250c0 20 -3.66699 35.833 -11 47.5s-20 17.5 -38 17.5c-17.333 0 -29.833 -6 -37.5 -18s-11.5 -27.667 -11.5 -47z" />
    <glyph glyph-name="icircumflex" unicode="&#x43e;" 
d="M42 156v228c0 68.667 19.333 118.667 58 150c34 28 84 42 150 42c138.667 0 208 -64 208 -192v-228c0 -61.333 -19.333 -106.333 -58 -135c-34.667 -26 -84.667 -39 -150 -39c-62 0 -111 13 -147 39c-40.667 29.333 -61 74.333 -61 135zM201 396l0.000976562 -250
c3.33301 -32.667 19.666 -49 48.999 -49c16 0 27.833 3.83301 35.5 11.5s12.167 20.167 13.5 37.5v250c0 20 -3.66699 35.833 -11 47.5s-20 17.5 -38 17.5c-17.333 0 -29.833 -6 -37.5 -18s-11.5 -27.667 -11.5 -47z" />
    <glyph glyph-name="idieresis" unicode="&#xef;" 
d="M205 0h-159v560h408v-560h-159v436h-90v-436z" />
    <glyph glyph-name="idieresis" unicode="&#x43f;" 
d="M205 0h-159v560h408v-560h-159v436h-90v-436z" />
    <glyph glyph-name="eth" unicode="&#xf0;" 
d="M299 209l0.000976562 145c0 27.333 -1.66699 46.666 -5 57.999c-6.66699 22.667 -20.334 34 -41.001 34c-20 0 -33.667 -8.66699 -41 -26s-11 -41.666 -11 -72.999v-132c0 -30 3 -53 9 -69c8.66699 -22.667 22 -34 40 -34c22 0 36.333 11.667 43 35c4 13.333 6 34 6 62z
M42.001 560l148.001 0.000976562v-68c33.333 56 77.333 84 132 84c48 0 83.667 -21 107 -63c19.333 -34.667 29 -77.667 29 -129v-194c0 -58.667 -8.66699 -105.334 -26 -140.001c-22.667 -45.333 -60.334 -68 -113.001 -68c-18 0 -36 4.66699 -54 14
c-24 12.667 -44.667 31.667 -62 57l-2 -242h-159v749z" />
    <glyph glyph-name="eth" unicode="&#x440;" 
d="M299 209l0.000976562 145c0 27.333 -1.66699 46.666 -5 57.999c-6.66699 22.667 -20.334 34 -41.001 34c-20 0 -33.667 -8.66699 -41 -26s-11 -41.666 -11 -72.999v-132c0 -30 3 -53 9 -69c8.66699 -22.667 22 -34 40 -34c22 0 36.333 11.667 43 35c4 13.333 6 34 6 62z
M42.001 560l148.001 0.000976562v-68c33.333 56 77.333 84 132 84c48 0 83.667 -21 107 -63c19.333 -34.667 29 -77.667 29 -129v-194c0 -58.667 -8.66699 -105.334 -26 -140.001c-22.667 -45.333 -60.334 -68 -113.001 -68c-18 0 -36 4.66699 -54 14
c-24 12.667 -44.667 31.667 -62 57l-2 -242h-159v749z" />
    <glyph glyph-name="ntilde" unicode="&#xf1;" 
d="M456 352l-149.996 -0.000976562l-1 10l-6 64c-7.33301 23.333 -21.666 35 -42.999 35c-18.667 0 -31.334 -6 -38.001 -18s-10 -28.667 -10 -50v-231c0 -20 3.66699 -35.833 11 -47.5s20.666 -17.5 39.999 -17.5s33 10 41 30c6 15.333 9 36 9 62
c0 8 -0.166992 15.167 -0.5 21.5s-0.5 11.833 -0.5 16.5h154c0 -19.333 -1 -42.666 -3 -69.999s-5.33301 -48.333 -10 -63c-10 -33.333 -29 -59.333 -57 -78c-25.333 -16.667 -56.333 -27 -93 -31c-6.66699 0 -16.334 -0.5 -29.001 -1.5s-20.667 -1.5 -24 -1.5
c-60.667 0 -107.667 13 -141 39c-37.333 29.333 -56 74.333 -56 135v228c0 69.333 17.333 119.333 52 150c31.333 28 79.666 42 144.999 42c77.333 0 131.666 -17.5 162.999 -52.5s47 -92.167 47 -171.5z" />
    <glyph glyph-name="ntilde" unicode="&#x441;" 
d="M456 352l-149.996 -0.000976562l-1 10l-6 64c-7.33301 23.333 -21.666 35 -42.999 35c-18.667 0 -31.334 -6 -38.001 -18s-10 -28.667 -10 -50v-231c0 -20 3.66699 -35.833 11 -47.5s20.666 -17.5 39.999 -17.5s33 10 41 30c6 15.333 9 36 9 62
c0 8 -0.166992 15.167 -0.5 21.5s-0.5 11.833 -0.5 16.5h154c0 -19.333 -1 -42.666 -3 -69.999s-5.33301 -48.333 -10 -63c-10 -33.333 -29 -59.333 -57 -78c-25.333 -16.667 -56.333 -27 -93 -31c-6.66699 0 -16.334 -0.5 -29.001 -1.5s-20.667 -1.5 -24 -1.5
c-60.667 0 -107.667 13 -141 39c-37.333 29.333 -56 74.333 -56 135v228c0 69.333 17.333 119.333 52 150c31.333 28 79.666 42 144.999 42c77.333 0 131.666 -17.5 162.999 -52.5s47 -92.167 47 -171.5z" />
    <glyph glyph-name="ograve" unicode="&#xf2;" horiz-adv-x="444" 
d="M22 436v124h400v-124h-122v-436h-159v436h-119z" />
    <glyph glyph-name="ograve" unicode="&#x442;" horiz-adv-x="444" 
d="M22 436v124h400v-124h-122v-436h-159v436h-119z" />
    <glyph glyph-name="oacute" unicode="&#xf3;" horiz-adv-x="444" 
d="M166 560l59 -362.001l52 362h156l-101 -479c-16 -76 -26.333 -121.667 -31 -137c-14 -45.333 -32.667 -77.666 -56 -96.999c-29.333 -24 -71.333 -36 -126 -36c-10 0 -18.5 0.333008 -25.5 1s-19.5 2 -37.5 4v118l31 -4c10.667 -1.33301 21.5 0.5 32.5 5.5
s16.5 12.5 16.5 22.5c0 14 -1 27.667 -3 41s-5.66699 31.333 -11 54l-116 507h160z" />
    <glyph glyph-name="oacute" unicode="&#x443;" horiz-adv-x="444" 
d="M166 560l59 -362.001l52 362h156l-101 -479c-16 -76 -26.333 -121.667 -31 -137c-14 -45.333 -32.667 -77.666 -56 -96.999c-29.333 -24 -71.333 -36 -126 -36c-10 0 -18.5 0.333008 -25.5 1s-19.5 2 -37.5 4v118l31 -4c10.667 -1.33301 21.5 0.5 32.5 5.5
s16.5 12.5 16.5 22.5c0 14 -1 27.667 -3 41s-5.66699 31.333 -11 54l-116 507h160z" />
    <glyph glyph-name="ocircumflex" unicode="&#xf4;" horiz-adv-x="740" 
d="M548 209l0.000976562 145c0 27.333 -1.66699 46.666 -5 57.999c-6.66699 22.667 -20.334 34 -41.001 34c-20 0 -33.667 -8.66699 -41 -26s-11 -41.666 -11 -72.999v-132c0 -30 3 -53 9 -69c8.66699 -22.667 22 -34 40 -34c22 0 36.333 11.667 43 35c4 13.333 6 34 6 62z
M193.001 209c0 -30 1.66602 -50.666 4.99902 -61.999c6.66699 -23.333 21.334 -35 44.001 -35c18 0 30.667 10 38 30s11 44.333 11 73v132c0 32 -3 55.333 -9 70c-8 19.333 -22.333 29 -43 29c-20 0 -33.333 -11 -40 -33c-4 -12.667 -6 -32.334 -6 -59.001v-145z
M291 -188.999l0.00195312 242.002c-17.333 -24.667 -38.333 -43.334 -63 -56.001c-19.333 -10 -37.666 -15 -54.999 -15c-52.667 0 -90.334 22.667 -113.001 68c-17.333 34 -26 80.667 -26 140v194c0 52.667 9.33301 95.667 28 129c23.333 42 59.333 63 108 63
c50 0 89.667 -21.667 119 -65l2 239h159v-239c31.333 43.333 71.666 65 120.999 65c48 0 83.667 -21 107 -63c19.333 -34.667 29 -77.667 29 -129v-194c0 -58.667 -8.66699 -105.334 -26 -140.001c-22.667 -45.333 -60.334 -68 -113.001 -68c-18 0 -36 4.66699 -54 14
c-24 12.667 -44.667 31.667 -62 57l-2 -242h-159z" />
    <glyph glyph-name="ocircumflex" unicode="&#x444;" horiz-adv-x="740" 
d="M548 209l0.000976562 145c0 27.333 -1.66699 46.666 -5 57.999c-6.66699 22.667 -20.334 34 -41.001 34c-20 0 -33.667 -8.66699 -41 -26s-11 -41.666 -11 -72.999v-132c0 -30 3 -53 9 -69c8.66699 -22.667 22 -34 40 -34c22 0 36.333 11.667 43 35c4 13.333 6 34 6 62z
M193.001 209c0 -30 1.66602 -50.666 4.99902 -61.999c6.66699 -23.333 21.334 -35 44.001 -35c18 0 30.667 10 38 30s11 44.333 11 73v132c0 32 -3 55.333 -9 70c-8 19.333 -22.333 29 -43 29c-20 0 -33.333 -11 -40 -33c-4 -12.667 -6 -32.334 -6 -59.001v-145z
M291 -188.999l0.00195312 242.002c-17.333 -24.667 -38.333 -43.334 -63 -56.001c-19.333 -10 -37.666 -15 -54.999 -15c-52.667 0 -90.334 22.667 -113.001 68c-17.333 34 -26 80.667 -26 140v194c0 52.667 9.33301 95.667 28 129c23.333 42 59.333 63 108 63
c50 0 89.667 -21.667 119 -65l2 239h159v-239c31.333 43.333 71.666 65 120.999 65c48 0 83.667 -21 107 -63c19.333 -34.667 29 -77.667 29 -129v-194c0 -58.667 -8.66699 -105.334 -26 -140.001c-22.667 -45.333 -60.334 -68 -113.001 -68c-18 0 -36 4.66699 -54 14
c-24 12.667 -44.667 31.667 -62 57l-2 -242h-159z" />
    <glyph glyph-name="otilde" unicode="&#xf5;" horiz-adv-x="444" 
d="M272 560h159l-125 -280l129 -280h-159l-51 161l-53 -161h-163l131 280l-125 280h158l47 -157z" />
    <glyph glyph-name="otilde" unicode="&#x445;" horiz-adv-x="444" 
d="M272 560h159l-125 -280l129 -280h-159l-51 161l-53 -161h-163l131 280l-125 280h158l47 -157z" />
    <glyph glyph-name="odieresis" unicode="&#xf6;" 
d="M343 0h-297v560h159v-448h90v448h159v-448h35v-220h-146v108z" />
    <glyph glyph-name="odieresis" unicode="&#x446;" 
d="M343 0h-297v560h159v-448h90v448h159v-448h35v-220h-146v108z" />
    <glyph glyph-name="divide" unicode="&#xf7;" horiz-adv-x="481" 
d="M35 560h159v-189c0 -23.333 12 -35 36 -35c16.667 0 32.334 5 47.001 15v209h159v-560h-159v228c-18.667 -7.33301 -35.834 -12.833 -51.501 -16.5s-33.5 -5.5 -53.5 -5.5c-42.667 0 -76.167 14.5 -100.5 43.5s-36.5 67.5 -36.5 115.5v195z" />
    <glyph glyph-name="divide" unicode="&#x447;" horiz-adv-x="481" 
d="M35 560h159v-189c0 -23.333 12 -35 36 -35c16.667 0 32.334 5 47.001 15v209h159v-560h-159v228c-18.667 -7.33301 -35.834 -12.833 -51.501 -16.5s-33.5 -5.5 -53.5 -5.5c-42.667 0 -76.167 14.5 -100.5 43.5s-36.5 67.5 -36.5 115.5v195z" />
    <glyph glyph-name="oslash" unicode="&#xf8;" horiz-adv-x="704" 
d="M46 0v560h159v-448h67v448h159v-448h67v448h159v-560h-611z" />
    <glyph glyph-name="oslash" unicode="&#x448;" horiz-adv-x="704" 
d="M46 0v560h159v-448h67v448h159v-448h67v448h159v-560h-611z" />
    <glyph glyph-name="ugrave" unicode="&#xf9;" horiz-adv-x="704" 
d="M546 0h-500v560h159v-448h67v448h159v-448h67v448h159v-448h35v-220h-146v108z" />
    <glyph glyph-name="ugrave" unicode="&#x449;" horiz-adv-x="704" 
d="M546 0h-500v560h159v-448h67v448h159v-448h67v448h159v-448h35v-220h-146v108z" />
    <glyph glyph-name="uacute" unicode="&#xfa;" horiz-adv-x="538" 
d="M265 113h9c34 0 56 2.33301 66 7c16.667 8 25 25.667 25 53s-9.33301 45.333 -28 54c-11.333 5.33301 -32.333 8 -63 8h-9v-122zM106 436l-84.001 0.000976562v124h243v-212h29c76.667 0 131.334 -10 164.001 -30c43.333 -26.667 65 -76.667 65 -150
c0 -68.667 -21.333 -115.334 -64 -140.001c-32 -18.667 -85.333 -28 -160 -28h-193v436z" />
    <glyph glyph-name="uacute" unicode="&#x44a;" horiz-adv-x="538" 
d="M265 113h9c34 0 56 2.33301 66 7c16.667 8 25 25.667 25 53s-9.33301 45.333 -28 54c-11.333 5.33301 -32.333 8 -63 8h-9v-122zM106 436l-84.001 0.000976562v124h243v-212h29c76.667 0 131.334 -10 164.001 -30c43.333 -26.667 65 -76.667 65 -150
c0 -68.667 -21.333 -115.334 -64 -140.001c-32 -18.667 -85.333 -28 -160 -28h-193v436z" />
    <glyph glyph-name="ucircumflex" unicode="&#xfb;" horiz-adv-x="723" 
d="M205 560l-0.000976562 -211.999h29c76.667 0 131.334 -10 164.001 -30c43.333 -26.667 65 -76.667 65 -150c0 -68.667 -21.333 -115.334 -64 -140.001c-32 -18.667 -85.333 -28 -160 -28h-193v560h159zM204.999 113.001h9c34 0 56 2.33301 66 7c16.667 8 25 25.667 25 53
s-9.33301 45.333 -28 54c-11.333 5.33301 -32.333 8 -63 8h-9v-122zM676.999 0.000976562h-159v560h159v-560z" />
    <glyph glyph-name="ucircumflex" unicode="&#x44b;" horiz-adv-x="723" 
d="M205 560l-0.000976562 -211.999h29c76.667 0 131.334 -10 164.001 -30c43.333 -26.667 65 -76.667 65 -150c0 -68.667 -21.333 -115.334 -64 -140.001c-32 -18.667 -85.333 -28 -160 -28h-193v560h159zM204.999 113.001h9c34 0 56 2.33301 66 7c16.667 8 25 25.667 25 53
s-9.33301 45.333 -28 54c-11.333 5.33301 -32.333 8 -63 8h-9v-122zM676.999 0.000976562h-159v560h159v-560z" />
    <glyph glyph-name="udieresis" unicode="&#xfc;" horiz-adv-x="481" 
d="M205 560l-0.000976562 -211.999h29c76.667 0 131.334 -10 164.001 -30c43.333 -26.667 65 -76.667 65 -150c0 -68.667 -21.333 -115.334 -64 -140.001c-32 -18.667 -85.333 -28 -160 -28h-193v560h159zM204.999 113.001h9c34 0 56 2.33301 66 7c16.667 8 25 25.667 25 53
s-9.33301 45.333 -28 54c-11.333 5.33301 -32.333 8 -63 8h-9v-122z" />
    <glyph glyph-name="udieresis" unicode="&#x44c;" horiz-adv-x="481" 
d="M205 560l-0.000976562 -211.999h29c76.667 0 131.334 -10 164.001 -30c43.333 -26.667 65 -76.667 65 -150c0 -68.667 -21.333 -115.334 -64 -140.001c-32 -18.667 -85.333 -28 -160 -28h-193v560h159zM204.999 113.001h9c34 0 56 2.33301 66 7c16.667 8 25 25.667 25 53
s-9.33301 45.333 -28 54c-11.333 5.33301 -32.333 8 -63 8h-9v-122z" />
    <glyph glyph-name="yacute" unicode="&#xfd;" 
d="M292 348l-0.00195312 44.999c0 21.333 -2.66699 37 -8 47c-7.33301 14 -20.666 21 -39.999 21c-21.333 0 -35.666 -11.667 -42.999 -35l-3 -31h-155c0 120.667 70.333 181 211 181c64.667 0 113 -14 145 -42c34.667 -30.667 52 -80.667 52 -150v-228
c0 -61.333 -18.333 -106.333 -55 -135c-33.333 -26 -80.666 -39 -141.999 -39c-71.333 0 -124.333 15 -159 45c-38.667 33.333 -58 87 -58 161h154c0 -27.333 2.66699 -47.666 8 -60.999c8 -20 22 -30 42 -30c19.333 0 32.666 5.66699 39.999 17s11 27.333 11 48v68h-116
v118h116z" />
    <glyph glyph-name="yacute" unicode="&#x44d;" 
d="M292 348l-0.00195312 44.999c0 21.333 -2.66699 37 -8 47c-7.33301 14 -20.666 21 -39.999 21c-21.333 0 -35.666 -11.667 -42.999 -35l-3 -31h-155c0 120.667 70.333 181 211 181c64.667 0 113 -14 145 -42c34.667 -30.667 52 -80.667 52 -150v-228
c0 -61.333 -18.333 -106.333 -55 -135c-33.333 -26 -80.666 -39 -141.999 -39c-71.333 0 -124.333 15 -159 45c-38.667 33.333 -58 87 -58 161h154c0 -27.333 2.66699 -47.666 8 -60.999c8 -20 22 -30 42 -30c19.333 0 32.666 5.66699 39.999 17s11 27.333 11 48v68h-116
v118h116z" />
    <glyph glyph-name="thorn" unicode="&#xfe;" horiz-adv-x="723" 
d="M432 396l0.00195312 -250c1.33301 -16.667 5.16602 -29 11.499 -37s17.5 -12 33.5 -12s27 3.66699 33 11s10 20 12 38v250c0 20.667 -3 36.667 -9 48s-18 17 -36 17c-16.667 0 -28.334 -5.83301 -35.001 -17.5s-10 -27.5 -10 -47.5zM273.002 227l-64.999 -0.000976562
v-227h-159v560h159v-209h65v33c0 68.667 18.667 118.667 56 150c33.333 28 82.666 42 147.999 42c136 0 204 -64 204 -192v-228c0 -59.333 -18.667 -103.666 -56 -132.999c-34.667 -27.333 -84 -41 -148 -41c-62 0 -110.333 13 -145 39c-39.333 29.333 -59 74.333 -59 135
v71z" />
    <glyph glyph-name="thorn" unicode="&#x44e;" horiz-adv-x="723" 
d="M432 396l0.00195312 -250c1.33301 -16.667 5.16602 -29 11.499 -37s17.5 -12 33.5 -12s27 3.66699 33 11s10 20 12 38v250c0 20.667 -3 36.667 -9 48s-18 17 -36 17c-16.667 0 -28.334 -5.83301 -35.001 -17.5s-10 -27.5 -10 -47.5zM273.002 227l-64.999 -0.000976562
v-227h-159v560h159v-209h65v33c0 68.667 18.667 118.667 56 150c33.333 28 82.666 42 147.999 42c136 0 204 -64 204 -192v-228c0 -59.333 -18.667 -103.666 -56 -132.999c-34.667 -27.333 -84 -41 -148 -41c-62 0 -110.333 13 -145 39c-39.333 29.333 -59 74.333 -59 135
v71z" />
    <glyph glyph-name="ydieresis" unicode="&#xff;" 
d="M295 216l-32.999 -0.000976562c-16.667 0 -28.834 -5.16699 -36.501 -15.5s-12.167 -22.333 -13.5 -36s-2.33301 -32.667 -3 -57s-1 -37.833 -1 -40.5v-35c-0.666992 -6 -1.5 -10.833 -2.5 -14.5s-3.16699 -9.5 -6.5 -17.5h-172v7c6.66699 5.33301 11.667 13.833 15 25.5
s6.33301 42.834 9 93.501s4 76.667 4 78c0 19.333 6.66699 35.166 20 47.499s31.333 20.5 54 24.5c-30 12.667 -50.667 29.334 -62 50.001s-17 47 -17 79c0 54.667 14.833 94.167 44.5 118.5s76.167 36.5 139.5 36.5h220v-560h-159v216zM295.001 446.999
c-32.667 0 -55.5 -3.16797 -68.5 -9.50098s-19.5 -22.833 -19.5 -49.5c0 -19.333 4 -34.166 12 -44.499s21.667 -15.5 41 -15.5h35v119z" />
    <glyph glyph-name="ydieresis" unicode="&#x44f;" 
d="M295 216l-32.999 -0.000976562c-16.667 0 -28.834 -5.16699 -36.501 -15.5s-12.167 -22.333 -13.5 -36s-2.33301 -32.667 -3 -57s-1 -37.833 -1 -40.5v-35c-0.666992 -6 -1.5 -10.833 -2.5 -14.5s-3.16699 -9.5 -6.5 -17.5h-172v7c6.66699 5.33301 11.667 13.833 15 25.5
s6.33301 42.834 9 93.501s4 76.667 4 78c0 19.333 6.66699 35.166 20 47.499s31.333 20.5 54 24.5c-30 12.667 -50.667 29.334 -62 50.001s-17 47 -17 79c0 54.667 14.833 94.167 44.5 118.5s76.167 36.5 139.5 36.5h220v-560h-159v216zM295.001 446.999
c-32.667 0 -55.5 -3.16797 -68.5 -9.50098s-19.5 -22.833 -19.5 -49.5c0 -19.333 4 -34.166 12 -44.499s21.667 -15.5 41 -15.5h35v119z" />
    <glyph glyph-name="OE" unicode="&#x152;" horiz-adv-x="832" 
d="M515 135h19.001c30.667 0 53.667 2.66699 69 8c13.333 6 22.666 18.667 27.999 38c3.33301 12 5 28.333 5 49c0 15.333 -1.5 29.5 -4.5 42.5s-8.83301 24.167 -17.5 33.5c-8 6.66699 -18 11.167 -30 13.5s-25.333 3.5 -40 3.5h-29v-188zM339.001 312h-121.998v-312h-176
v750h176v-288h122v288h176v-292h55c33.333 0 60.166 -1.33301 80.499 -4s41.166 -9.33398 62.499 -20.001c36 -16.667 62.333 -46 79 -88c13.333 -34 20 -74.333 20 -121c0 -34.667 -3.33301 -65.167 -10 -91.5s-19.667 -50.166 -39 -71.499
c-22 -24.667 -55.333 -42 -100 -52c-30.667 -6.66699 -69 -10 -115 -10h-209v312z" />
    <glyph glyph-name="OE" unicode="&#x40a;" horiz-adv-x="832" 
d="M515 135h19.001c30.667 0 53.667 2.66699 69 8c13.333 6 22.666 18.667 27.999 38c3.33301 12 5 28.333 5 49c0 15.333 -1.5 29.5 -4.5 42.5s-8.83301 24.167 -17.5 33.5c-8 6.66699 -18 11.167 -30 13.5s-25.333 3.5 -40 3.5h-29v-188zM339.001 312h-121.998v-312h-176
v750h176v-288h122v288h176v-292h55c33.333 0 60.166 -1.33301 80.499 -4s41.166 -9.33398 62.499 -20.001c36 -16.667 62.333 -46 79 -88c13.333 -34 20 -74.333 20 -121c0 -34.667 -3.33301 -65.167 -10 -91.5s-19.667 -50.166 -39 -71.499
c-22 -24.667 -55.333 -42 -100 -52c-30.667 -6.66699 -69 -10 -115 -10h-209v312z" />
    <glyph glyph-name="oe" unicode="&#x153;" horiz-adv-x="740" 
d="M454 113h9c34 0 56 2.33301 66 7c16.667 8 25 25.667 25 53s-9.33301 45.333 -28 54c-11.333 5.33301 -32.333 8 -63 8h-9v-122zM295 227l-90.001 0.000976562v-227h-159v560h159v-209h90v209h159v-212h29c76.667 0 131.334 -10 164.001 -30
c43.333 -26.667 65 -76.667 65 -150c0 -68.667 -21.333 -115.334 -64 -140.001c-32 -18.667 -85.333 -28 -160 -28h-193v227z" />
    <glyph glyph-name="oe" unicode="&#x45a;" horiz-adv-x="740" 
d="M454 113h9c34 0 56 2.33301 66 7c16.667 8 25 25.667 25 53s-9.33301 45.333 -28 54c-11.333 5.33301 -32.333 8 -63 8h-9v-122zM295 227l-90.001 0.000976562v-227h-159v560h159v-209h90v209h159v-212h29c76.667 0 131.334 -10 164.001 -30
c43.333 -26.667 65 -76.667 65 -150c0 -68.667 -21.333 -115.334 -64 -140.001c-32 -18.667 -85.333 -28 -160 -28h-193v227z" />
    <glyph glyph-name="Scaron" unicode="&#x160;" horiz-adv-x="832" 
d="M515 135h19.001c30.667 0 53.667 2.66699 69 8c13.333 6 22.666 18.667 27.999 38c3.33301 12 5 28.333 5 49c0 15.333 -1.5 29.5 -4.5 42.5s-8.83301 24.167 -17.5 33.5c-8 6.66699 -18 11.167 -30 13.5s-25.333 3.5 -40 3.5h-29v-188zM339.001 600
l-93.9971 0.000976562v-257c0 -88.667 -3 -150 -9 -184c-10 -56.667 -31.667 -99.334 -65 -128.001c-38 -32.667 -95 -49 -171 -49v150c45.333 0 71.666 26.667 78.999 80c3.33301 24 5 67.667 5 131v407h431v-292h55c33.333 0 60.166 -1.33301 80.499 -4
s41.166 -9.33398 62.499 -20.001c36 -16.667 62.333 -46 79 -88c13.333 -34 20 -74.333 20 -121c0 -34.667 -3.33301 -65.167 -10 -91.5s-19.667 -50.166 -39 -71.499c-22 -24.667 -55.333 -42 -100 -52c-30.667 -6.66699 -69 -10 -115 -10h-209v600z" />
    <glyph glyph-name="Scaron" unicode="&#x409;" horiz-adv-x="832" 
d="M515 135h19.001c30.667 0 53.667 2.66699 69 8c13.333 6 22.666 18.667 27.999 38c3.33301 12 5 28.333 5 49c0 15.333 -1.5 29.5 -4.5 42.5s-8.83301 24.167 -17.5 33.5c-8 6.66699 -18 11.167 -30 13.5s-25.333 3.5 -40 3.5h-29v-188zM339.001 600
l-93.9971 0.000976562v-257c0 -88.667 -3 -150 -9 -184c-10 -56.667 -31.667 -99.334 -65 -128.001c-38 -32.667 -95 -49 -171 -49v150c45.333 0 71.666 26.667 78.999 80c3.33301 24 5 67.667 5 131v407h431v-292h55c33.333 0 60.166 -1.33301 80.499 -4
s41.166 -9.33398 62.499 -20.001c36 -16.667 62.333 -46 79 -88c13.333 -34 20 -74.333 20 -121c0 -34.667 -3.33301 -65.167 -10 -91.5s-19.667 -50.166 -39 -71.499c-22 -24.667 -55.333 -42 -100 -52c-30.667 -6.66699 -69 -10 -115 -10h-209v600z" />
    <glyph glyph-name="scaron" unicode="&#x161;" horiz-adv-x="740" 
d="M454 113h9c34 0 56 2.33301 66 7c16.667 8 25 25.667 25 53s-9.33301 45.333 -28 54c-11.333 5.33301 -32.333 8 -63 8h-9v-122zM295 436l-73.002 0.000976562v-180c0 -92 -10.333 -155.667 -31 -191c-30.667 -52 -92.667 -78 -186 -78v124
c32.667 0 53.334 12.667 62.001 38c6 17.333 9 57 9 119v292h378v-212h29c76.667 0 131.334 -10 164.001 -30c43.333 -26.667 65 -76.667 65 -150c0 -68.667 -21.333 -115.334 -64 -140.001c-32 -18.667 -85.333 -28 -160 -28h-193v436z" />
    <glyph glyph-name="scaron" unicode="&#x459;" horiz-adv-x="740" 
d="M454 113h9c34 0 56 2.33301 66 7c16.667 8 25 25.667 25 53s-9.33301 45.333 -28 54c-11.333 5.33301 -32.333 8 -63 8h-9v-122zM295 436l-73.002 0.000976562v-180c0 -92 -10.333 -155.667 -31 -191c-30.667 -52 -92.667 -78 -186 -78v124
c32.667 0 53.334 12.667 62.001 38c6 17.333 9 57 9 119v292h378v-212h29c76.667 0 131.334 -10 164.001 -30c43.333 -26.667 65 -76.667 65 -150c0 -68.667 -21.333 -115.334 -64 -140.001c-32 -18.667 -85.333 -28 -160 -28h-193v436z" />
    <glyph glyph-name="Ydieresis" unicode="&#x178;" 
d="M177 0h-131v560h159v-448h90v448h159v-560h-131v-108h-146v108z" />
    <glyph glyph-name="Ydieresis" unicode="&#x45f;" 
d="M177 0h-131v560h159v-448h90v448h159v-560h-131v-108h-146v108z" />
    <glyph glyph-name="florin" unicode="&#x192;" horiz-adv-x="407" 
d="M387 560v-124h-182v-436h-159v560h341zM202 782h208l-171 -148h-137z" />
    <glyph glyph-name="florin" unicode="&#x453;" horiz-adv-x="407" 
d="M387 560v-124h-182v-436h-159v560h341zM202 782h208l-171 -148h-137z" />
    <glyph glyph-name="endash" unicode="&#x2013;" 
d="M500 253h-500v115h500v-115z" />
    <glyph glyph-name="emdash" unicode="&#x2014;" horiz-adv-x="1000" 
d="M1000 253h-1000v115h1000v-115z" />
    <glyph glyph-name="quoteleft" unicode="&#x2018;" horiz-adv-x="278" 
d="M220 768l-0.000976562 -56.999c-27.333 0 -48.166 -8.83301 -62.499 -26.5s-21.5 -40.834 -21.5 -69.501h84v-160h-158v161c0 50 13.667 87.833 41 113.5s66.333 38.5 117 38.5z" />
    <glyph glyph-name="quoteright" unicode="&#x2019;" horiz-adv-x="278" 
d="M58 437l0.000976562 56.999c27.333 0 48.166 8.83301 62.499 26.5s21.5 40.834 21.5 69.501h-84v160h158v-161c0 -50 -13.667 -87.833 -41 -113.5s-66.333 -38.5 -117 -38.5z" />
    <glyph glyph-name="quotesinglbase" unicode="&#x201a;" horiz-adv-x="278" 
d="M60 -152l0.000976562 56.999c27.333 0 48.166 8.83301 62.499 26.5s21.5 40.834 21.5 69.501h-84v160h158v-161c0 -50 -13.667 -87.833 -41 -113.5s-66.333 -38.5 -117 -38.5z" />
    <glyph glyph-name="quotedblleft" unicode="&#x201c;" 
d="M211 768l-0.000976562 -56.999c-27.333 0 -48.166 -8.83301 -62.499 -26.5s-21.5 -40.834 -21.5 -69.501h84v-160h-158v161c0 50 13.667 87.833 41 113.5s66.333 38.5 117 38.5zM450.999 768.001l-0.000976562 -56.999c-27.333 0 -48.166 -8.83301 -62.499 -26.5
s-21.5 -40.834 -21.5 -69.501h84v-160h-158v161c0 50 13.667 87.833 41 113.5s66.333 38.5 117 38.5z" />
    <glyph glyph-name="quotedblright" unicode="&#x201d;" 
d="M289 437l0.000976562 56.999c27.333 0 48.166 8.83301 62.499 26.5s21.5 40.834 21.5 69.501h-84v160h158v-161c0 -50 -13.667 -87.833 -41 -113.5s-66.333 -38.5 -117 -38.5zM49.001 436.999l0.000976562 56.999c27.333 0 48.166 8.83301 62.499 26.5
s21.5 40.834 21.5 69.501h-84v160h158v-161c0 -50 -13.667 -87.833 -41 -113.5s-66.333 -38.5 -117 -38.5z" />
    <glyph glyph-name="quotedblbase" unicode="&#x201e;" 
d="M292 -152l0.000976562 56.999c27.333 0 48.166 8.83301 62.499 26.5s21.5 40.834 21.5 69.501h-84v160h158v-161c0 -50 -13.667 -87.833 -41 -113.5s-66.333 -38.5 -117 -38.5zM51.001 -152.001l0.000976562 56.999c27.333 0 48.166 8.83301 62.499 26.5
s21.5 40.834 21.5 69.501h-84v160h158v-161c0 -50 -13.667 -87.833 -41 -113.5s-66.333 -38.5 -117 -38.5z" />
    <glyph glyph-name="dagger" unicode="&#x2020;" 
d="M170 386h-141v135h141v229h159v-229h143v-135h-143v-559h-159v559z" />
    <glyph glyph-name="daggerdbl" unicode="&#x2021;" 
d="M171 -171v209h-144v135h144v222h-144v135h144v220h159v-220h142v-135h-142v-222h144v-135h-144v-209h-159z" />
    <glyph glyph-name="bullet" unicode="&#x2022;" horiz-adv-x="420" 
d="M398 375c0 -52 -18.499 -96.5 -55.499 -133.5s-81.5 -55.5 -133.5 -55.5s-96.167 18.5 -132.5 55.5s-54.5 81.5 -54.5 133.5c0 51.333 18 95.333 54 132s80.333 55 133 55c51.333 0 95.666 -18.333 132.999 -55s56 -80.667 56 -132z" />
    <glyph glyph-name="ellipsis" unicode="&#x2026;" horiz-adv-x="1000" 
d="M251 0h-169v171h169v-171zM584 0h-169v171h169v-171zM918 0h-169v171h169v-171z" />
    <glyph glyph-name="perthousand" unicode="&#x2030;" horiz-adv-x="1111" 
d="M579 750l-339 -768h-82l338 768h83zM158 752c58.667 0 100.166 -14.832 124.499 -44.499s36.5 -76.834 36.5 -141.501c0 -62 -9 -106.333 -27 -133c-24 -36 -68.333 -54 -133 -54c-59.333 0 -101.666 16.667 -126.999 50c-22 29.333 -33 75 -33 137
c0 59.333 11.333 104 34 134c26 34.667 67.667 52 125 52zM157.999 661.001c-12 1.33301 -21.5 -2.5 -28.5 -11.5s-10.5 -26.833 -10.5 -53.5c0.666992 -13.333 1 -22.666 1 -27.999c0 -6 -0.166992 -12 -0.5 -18s-0.5 -12 -0.5 -18c0 -20 2.5 -35.333 7.5 -46
s15.833 -16 32.5 -16c16 0 27 8.66699 33 26c4 12 6 29 6 51v21c0.666992 13.333 1 23.666 1 30.999c0 18 -2.33301 32 -7 42c-6.66699 13.333 -18 20 -34 20zM578.999 369.001c58.667 0 100.166 -14.832 124.499 -44.499s36.5 -76.834 36.5 -141.501
c0 -62 -9 -106.333 -27 -133c-24 -36 -68.333 -54 -133 -54c-59.333 0 -101.666 16.667 -126.999 50c-22 29.333 -33 75 -33 137c0 59.333 11.333 104 34 134c26 34.667 67.667 52 125 52zM578.998 278.002c-12 1.33301 -21.5 -2.5 -28.5 -11.5s-10.5 -26.833 -10.5 -53.5
c0.666992 -13.333 1 -22.666 1 -27.999c0 -6 -0.166992 -12 -0.5 -18s-0.5 -12 -0.5 -18c0 -20 2.5 -35.333 7.5 -46s15.833 -16 32.5 -16c16 0 27 8.66699 33 26c4 12 6 29 6 51v21c0.666992 13.333 1 23.666 1 30.999c0 18 -2.33301 32 -7 42
c-6.66699 13.333 -18 20 -34 20zM951.998 369.002c58.667 0 100.166 -14.832 124.499 -44.499s36.5 -76.834 36.5 -141.501c0 -62 -9 -106.333 -27 -133c-24 -36 -68.333 -54 -133 -54c-59.333 0 -101.666 16.667 -126.999 50c-22 29.333 -33 75 -33 137
c0 59.333 11.333 104 34 134c26 34.667 67.667 52 125 52zM951.997 278.003c-12 1.33301 -21.5 -2.5 -28.5 -11.5s-10.5 -26.833 -10.5 -53.5c0.666992 -13.333 1 -22.666 1 -27.999c0 -6 -0.166992 -12 -0.5 -18s-0.5 -12 -0.5 -18c0 -20 2.5 -35.333 7.5 -46
s15.833 -16 32.5 -16c16 0 27 8.66699 33 26c4 12 6 29 6 51v21c0.666992 13.333 1 23.666 1 30.999c0 18 -2.33301 32 -7 42c-6.66699 13.333 -18 20 -34 20z" />
    <glyph glyph-name="guilsinglleft" unicode="&#x2039;" horiz-adv-x="278" 
d="M234 123l-181 116v146l181 120v-131l-102 -63l102 -58v-130z" />
    <glyph glyph-name="guilsinglright" unicode="&#x203a;" horiz-adv-x="278" 
d="M44 123v130l102 58l-102 63v131l181 -120v-146z" />
    <glyph glyph-name="trademark" unicode="&#x2122;" horiz-adv-x="860" 
d="M858 750v-404h-93v316l-114 -316h-62l-112 316l-2 -316h-93v404h147l90 -249l92 249h147zM338 750v-88h-119v-316h-102v316h-114v88h335z" />
    <glyph glyph-name=".null" horiz-adv-x="0" 
 />
    <glyph glyph-name="nonmarkingreturn" horiz-adv-x="250" 
 />
    </font>
</defs>
</svg>
